<?xml version='1.0' encoding='utf-8'?>
<svg xmlns="http://www.w3.org/2000/svg" width="1920" height="1080" viewBox="0 0 1920 1080" data-theme="dark">
  <style>
        @font-face {
            font-family: 'Inter';
            src: url('assets/fonts/Inter-Regular.ttf') format('truetype');
            font-weight: 400;
            font-style: normal;
            font-display: swap;
        }
        @font-face {
            font-family: 'Inter';
            src: url('assets/fonts/Inter-Bold.ttf') format('truetype');
            font-weight: 600;
            font-style: normal;
            font-display: swap;
        }
        @font-face {
            font-family: 'Inter';
            src: url('assets/fonts/Inter-Bold.ttf') format('truetype');
            font-weight: 800;
            font-style: normal;
            font-display: swap;
        }
        
:root {
    --background: #0f172a;
    --panel: #1e293b;
    --primary-text: #f1f5f9;
    --muted-text: #94a3b8;
    --inverse-text: #0f172a;
    --border: #334155;
    --shadow-color: #000000;
    --icon-pad-bg: #1e293b;
    --art-glow: #7dd3fc;
    --art-glow-opacity: 0.18;
    --art-sheen: #ffffff;
    --art-sheen-opacity: 0.18;
    --art-shadow: #000000;
    --art-shadow-opacity: 0.28;
    --art-muted-line: #64748b;
    --art-panel-tint: #1e293b;
    --font-family: 'Inter', 'Segoe UI', 'Kalam', Roboto, Helvetica, Arial, sans-serif;
    --radius-xl: 16px;
    --font-family-headline: 'Inter', 'Segoe UI', 'Kalam', Roboto, Helvetica, Arial, sans-serif;
    --font-family-body: 'Inter', 'Segoe UI', 'Kalam', Roboto, Helvetica, Arial, sans-serif;
    --font-heading: 'Inter', 'Segoe UI', 'Kalam', Roboto, Helvetica, Arial, sans-serif;
    --font-body: 'Inter', 'Segoe UI', 'Kalam', Roboto, Helvetica, Arial, sans-serif;
    --font-size-h1: 56px;
    --font-size-h2: 40px;
    --font-size-h3: 28px;
    --font-size-body: 24px;
    --font-size-caption: 18px;
    --secondary-text: var(--muted-text);
    --panel-border: var(--border);
    --font-weight-normal: 400;
    --font-weight-medium: 500;
    --font-weight-semibold: 600;
    --font-weight-bold: 700;
    --spacing-gutter-pct: 0.07;
    --spacing-top-pct: 0.15;
    --spacing-bottom-pct: 0.07;
    --spacing-title-y-pct: 0.055;
    --accent-1: #60a5fa;
    --accent-2: #4ade80;
    --accent-3: #f97316;
    --accent-4: #a78bfa;
    --accent-5: #38bdf8;
    --accent-6: #94a3b8;
}
:root[data-theme="dark"] {
    --background: #0f172a;
    --panel: #1e293b;
    --primary-text: #f1f5f9;
    --muted-text: #94a3b8;
    --inverse-text: #0f172a;
    --border: #334155;
    --shadow-color: #000000;
    --icon-pad-bg: #1e293b;
    --art-glow: #7dd3fc;
    --art-glow-opacity: 0.18;
    --art-sheen: #ffffff;
    --art-sheen-opacity: 0.18;
    --art-shadow: #000000;
    --art-shadow-opacity: 0.28;
    --art-muted-line: #64748b;
    --art-panel-tint: #1e293b;
    --accent-1: #60a5fa;
    --accent-2: #4ade80;
    --accent-3: #f97316;
    --accent-4: #a78bfa;
    --accent-5: #38bdf8;
    --accent-6: #94a3b8;
}
:root[data-theme="light"] {
    --background: #f8fafc;
    --panel: #ffffff;
    --primary-text: #0f172a;
    --muted-text: #64748b;
    --inverse-text: #ffffff;
    --border: #e2e8f0;
    --shadow-color: #000000;
    --icon-pad-bg: #1e293b;
    --art-glow: #0891b2;
    --art-glow-opacity: 0.10;
    --art-sheen: #ffffff;
    --art-sheen-opacity: 0.34;
    --art-shadow: #0f172a;
    --art-shadow-opacity: 0.14;
    --art-muted-line: #94a3b8;
    --art-panel-tint: #f1f5f9;
    --accent-1: #2563eb;
    --accent-2: #16a34a;
    --accent-3: #ea580c;
    --accent-4: #7c3aed;
    --accent-5: #0284c7;
    --accent-6: #475569;
}</style>
  <rect x="0" y="0" width="1.92E+3" height="1.08E+3" fill="#252a34" stroke="none" id="programmatic_background"/>
  <line id="HEADER_DECOR" x1="960.0" x2="1080.0" y1="135.0" y2="135.0" stroke="var(--accent-1)" stroke-width="6" stroke-linecap="round"/>
  <defs>
    <pattern id="svge81537a4-napkin-hatch" patternUnits="userSpaceOnUse" width="12" height="12">
      <path d="M -3 12 L 12 -3 M 0 15 L 15 0" fill="none" stroke="var(--primary-text)" stroke-width="1" stroke-opacity="0.05"/>
    </pattern>
    <filter id="svge81537a4-shadow" x="-30%" y="-30%" width="160%" height="160%">
      <feDropShadow dx="0" dy="2" stdDeviation="3" flood-color="#000000" flood-opacity="0.08"/>
      <feDropShadow dx="0" dy="6" stdDeviation="10" flood-color="#000000" flood-opacity="0.12"/>
    </filter>
    <radialGradient id="svge81537a4-universal-edge-vignette" cx="50%" cy="50%" r="72%">
      <stop offset="0%" stop-color="var(--background)" stop-opacity="0"/>
      <stop offset="72%" stop-color="var(--background)" stop-opacity="0.12"/>
      <stop offset="100%" stop-color="var(--primary-text)" stop-opacity="0.08"/>
    </radialGradient>
    <linearGradient id="svge81537a4-universal-surface-sheen" x1="0%" y1="0%" x2="100%" y2="100%">
      <stop offset="0%" stop-color="var(--art-sheen)" stop-opacity="var(--art-sheen-opacity)"/>
      <stop offset="46%" stop-color="var(--art-sheen)" stop-opacity="0.035"/>
      <stop offset="100%" stop-color="var(--art-panel-tint)" stop-opacity="0.14"/>
    </linearGradient>
    <radialGradient id="svge81537a4-universal-icon-aura" cx="50%" cy="42%" r="64%">
      <stop offset="0%" stop-color="var(--art-glow)" stop-opacity="var(--art-glow-opacity)"/>
      <stop offset="100%" stop-color="var(--background)" stop-opacity="0"/>
    </radialGradient>
    <filter id="svge81537a4-text-glow" x="-20%" y="-20%" width="140%" height="140%">
      <feDropShadow dx="0" dy="0" stdDeviation="2" flood-color="#000000" flood-opacity="0.4"/>
    </filter>
    <marker id="svge81537a4-arrowhead" markerWidth="10" markerHeight="7" refX="9" refY="3.5" orient="auto" markerUnits="strokeWidth">
      <polygon points="0 0, 10 3.5, 0 7" fill="var(--muted-text)" opacity="0.6"/>
    </marker>
  </defs>
  <rect width="100%" height="100%" fill="var(--background)" id="CANVAS_BG"/>
  <rect width="100%" height="100%" fill="url(#svge81537a4-napkin-hatch)"/>
  <rect id="UNIVERSAL_EDGE_VIGNETTE" width="100%" height="100%" fill="url(#svge81537a4-universal-edge-vignette)" opacity="0.62"/>
  <text id="TITLE" x="960.0" y="59" text-anchor="middle" font-size="63" font-weight="700" fill="#f1f5f9" style="font-size: 60px; font-family: Inter, Segoe UI, Kalam, Roboto, Helvetica, Arial, sans-serif; font-weight: 700; letter-spacing:-1.2px;" data-final-font-size="60">
    <tspan x="960.0" dy="68.00px">Lennon's UFO Sighting Time line</tspan>
  </text>
  <rect id="TITLE_FRAME" x="134" y="59" width="1652" height="103" fill="none"/>
  <g id="DIAGRAM_SCALER">
    <line x1="960" y1="210" x2="960" y2="940" stroke="var(--border)" stroke-width="20" stroke-linecap="round" opacity="0.1"/>
    <line x1="960" y1="210" x2="960" y2="940" stroke="var(--muted-text)" stroke-width="7" stroke-linecap="round" opacity="0.48"/>
    <circle cx="960" cy="210" r="10" fill="var(--border)" opacity="0.35"/>
    <path d="M 960 972 L 980 940 L 940 940 Z" fill="var(--muted-text)" opacity="0.5"/>
    <g transform="translate(960, 260)">
      <circle cx="0" cy="0" r="18" fill="var(--panel)" stroke="var(--border)" stroke-width="4"/>
      <circle cx="0" cy="0" r="7" fill="var(--accent-1)"/>
      <line x1="0" y1="0" x2="220" y2="0" stroke="var(--accent-1)" stroke-width="16" stroke-linecap="round" opacity="0.18"/>
      <line x1="0" y1="0" x2="220" y2="0" stroke="var(--accent-1)" stroke-width="4" stroke-linecap="round"/>
      <circle cx="220" cy="0" r="72" fill="var(--accent-1)" opacity="0.14"/>
      <circle id="ITEM_1_NODE" cx="220" cy="0" r="56" fill="var(--panel)" stroke="var(--accent-1)" stroke-width="3"/>
      <circle id="ITEM_1_PAD" cx="220" cy="0" r="50" fill="var(--icon-pad-bg)" stroke="var(--primary-text)" opacity="0.94" fill-opacity="0.9" stroke-width="2"/>
      <circle id="ITEM_1_PAD_INNER" cx="220" cy="0" r="39.00" fill="var(--accent-3)" fill-opacity="0.22"/>
      <circle cx="220" cy="0" r="40" fill="none" stroke="var(--accent-1)" stroke-width="3" stroke-dasharray="6 4"/>
      <g id="ITEM_1_ICON" transform="translate(188, -32)" data-icon-size="64" stroke-dasharray="6 4">
        <g transform="translate(-11.03448275862069,-11.03448275862069) scale(3.586206896551724)" vector-effect="non-scaling-stroke" stroke-width="2.48" stroke-linecap="round" stroke-linejoin="round" stroke-opacity="1.0">
          <path d="M2 12C2 7.28595 2 4.92893 3.46447 3.46447C4.92893 2 7.28595 2 12 2C16.714 2 19.0711 2 20.5355 3.46447C22 4.92893 22 7.28595 22 12C22 16.714 22 19.0711 20.5355 20.5355C19.0711 22 16.714 22 12 22C7.28595 22 4.92893 22 3.46447 20.5355C2 19.0711 2 16.714 2 12Z" stroke="#f1f5f9" vector-effect="non-scaling-stroke" fill="none"/>
          <path d="M7 6C7 6.55228 6.55228 7 6 7C5.44772 7 5 6.55228 5 6C5 5.44772 5.44772 5 6 5C6.55228 5 7 5.44772 7 6Z" fill="none" vector-effect="non-scaling-stroke" stroke="#f1f5f9"/>
          <path d="M10 6C10 6.55228 9.55228 7 9 7C8.44772 7 8 6.55228 8 6C8 5.44772 8.44772 5 9 5C9.55228 5 10 5.44772 10 6Z" fill="none" vector-effect="non-scaling-stroke" stroke="#f1f5f9"/>
          <path d="M13 6C13 6.55228 12.5523 7 12 7C11.4477 7 11 6.55228 11 6C11 5.44772 11.4477 5 12 5C12.5523 5 13 5.44772 13 6Z" fill="none" vector-effect="non-scaling-stroke" stroke="#f1f5f9"/>
          <path d="M2 9.5H22" stroke="#f1f5f9" vector-effect="non-scaling-stroke" fill="none"/>
          <path d="M9 21L9 10" stroke="#f1f5f9" vector-effect="non-scaling-stroke" fill="none"/>
        </g>
      </g>
      <g transform="translate(332, 0)">
        <path id="ITEM_1_TEXT_BG" d="M -26 -50 L 378 -50 L 420 -10 L 420 148 L 34 148 L -50 86 L -50 18 Z" fill="var(--panel)" fill-opacity="0.96" stroke="var(--primary-text)" stroke-opacity="0.12" stroke-width="1.5" filter="url(#svge81537a4-shadow)"/>
        <rect x="392" y="-30" width="10" height="110" rx="5" fill="var(--accent-1)" opacity="0.7"/>
        <line x1="24" y1="10" x2="354" y2="10" stroke="var(--accent-1)" stroke-width="3" opacity="0.3"/>
        <text id="ITEM_1_HEAD" data-bg-id="ITEM_1_TEXT_BG" font-weight="700" font-size="32" fill="var(--accent-3)" x="24.0" y="-30.0" fill-opacity="1.0" stroke="none" style="font-size: 30px; font-family: Inter, Segoe UI, Kalam, Roboto, Helvetica, Arial, sans-serif; font-weight: 700; letter-spacing:-0.4px;" data-final-font-size="30">
          <tspan x="24.0" dy="26.25px">August 1974 Sighting</tspan>
        </text>
        <rect id="ITEM_1_HEAD_FRAME" x="24" y="-30" width="338" height="36" fill="none"/>
        <text id="ITEM_1_BODY" data-bg-id="ITEM_1_TEXT_BG" font-size="22" fill="var(--primary-text)" opacity="0.92" x="24.0" y="24.0" style="font-size: 22px; font-family: Inter, Segoe UI, Kalam, Roboto, Helvetica, Arial, sans-serif; font-weight: 400;" data-final-font-size="22">
          <tspan x="24.0" dy="23.08px">Lennon observes an unidentified</tspan>
          <tspan x="24.0" dy="25.30px">object from a New York apartment</tspan>
        </text>
        <rect id="ITEM_1_BODY_FRAME" x="24" y="24" width="356" height="78" fill="none"/>
      </g>
    </g>
    <g transform="translate(960, 440)">
      <circle cx="0" cy="0" r="18" fill="var(--panel)" stroke="var(--border)" stroke-width="4"/>
      <circle cx="0" cy="0" r="7" fill="var(--accent-2)"/>
      <line x1="0" y1="0" x2="-220" y2="0" stroke="var(--accent-2)" stroke-width="16" stroke-linecap="round" opacity="0.18"/>
      <line x1="0" y1="0" x2="-220" y2="0" stroke="var(--accent-2)" stroke-width="4" stroke-linecap="round"/>
      <circle cx="-220" cy="0" r="72" fill="var(--accent-2)" opacity="0.14"/>
      <circle id="ITEM_2_NODE" cx="-220" cy="0" r="56" fill="var(--panel)" stroke="var(--accent-2)" stroke-width="3"/>
      <circle id="ITEM_2_PAD" cx="-220" cy="0" r="50" fill="var(--icon-pad-bg)" stroke="var(--primary-text)" opacity="0.94" fill-opacity="0.9" stroke-width="2"/>
      <circle id="ITEM_2_PAD_INNER" cx="-220" cy="0" r="39.00" fill="var(--accent-4)" fill-opacity="0.22"/>
      <circle cx="-220" cy="0" r="40" fill="none" stroke="var(--accent-2)" stroke-width="3" stroke-dasharray="6 4"/>
      <g id="ITEM_2_ICON" transform="translate(-252, -32)" data-icon-size="64" stroke-dasharray="6 4">
        <g transform="translate(-12.57142857142857,-12.571428571428571) scale(2.7857142857142856)">
          <path d="M8 26H27V4C27 2.89543 26.1046 2 25 2H8V26Z" fill="#533566"/>
          <path d="M6 27H27V29H6V27Z" fill="#D3D3D3"/>
          <path d="M12.5 7C12.5 6.44772 12.9477 6 13.5 6H18.5C19.0523 6 19.5 6.44772 19.5 7V9C19.5 9.55228 19.0523 10 18.5 10H13.5C12.9477 10 12.5 9.55228 12.5 9V7Z" fill="white"/>
          <path d="M6.5 2C5.67157 2 5 2.67157 5 3.5V28H6C6 27.4477 6.44772 27 7 27H8V2H6.5Z" fill="#321B41"/>
          <path d="M6.5 26C5.67157 26 5 26.6716 5 27.5V28.5C5 29.3284 5.67157 30 6.5 30H25.5C26.1531 30 26.7087 29.5826 26.9146 29H7C6.44772 29 6 28.5523 6 28C6 27.4477 6.44772 27 7 27H27V26H6.5Z" fill="#6B438B"/>
          <path d="M23 2H24V30H23V2Z" fill="#6B438B"/>
        </g>
      </g>
      <g transform="translate(-332, 0)">
        <path id="ITEM_2_TEXT_BG" d="M 26 -50 L -378 -50 L -420 -10 L -420 148 L -34 148 L 50 86 L 50 18 Z" fill="var(--panel)" fill-opacity="0.96" stroke="var(--primary-text)" stroke-opacity="0.12" stroke-width="1.5" filter="url(#svge81537a4-shadow)"/>
        <rect x="-402" y="-30" width="10" height="110" rx="5" fill="var(--accent-2)" opacity="0.7"/>
        <line x1="-24" y1="10" x2="-354" y2="10" stroke="var(--accent-2)" stroke-width="3" opacity="0.3"/>
        <text id="ITEM_2_HEAD" data-bg-id="ITEM_2_TEXT_BG" text-anchor="end" font-weight="700" font-size="32" fill="var(--accent-4)" x="-24.0" y="-30.0" fill-opacity="1.0" stroke="none" style="font-size: 30px; font-family: Inter, Segoe UI, Kalam, Roboto, Helvetica, Arial, sans-serif; font-weight: 700; letter-spacing:-0.4px;" data-final-font-size="30">
          <tspan x="-24.0" dy="26.25px">Liner Note Entry</tspan>
        </text>
        <rect id="ITEM_2_HEAD_FRAME" x="-362" y="-30" width="338" height="36" fill="none"/>
        <text id="ITEM_2_BODY" data-bg-id="ITEM_2_TEXT_BG" text-anchor="end" font-size="22" fill="var(--primary-text)" opacity="0.92" x="-24.0" y="24.0" style="font-size: 22px; font-family: Inter, Segoe UI, Kalam, Roboto, Helvetica, Arial, sans-serif; font-weight: 400;" data-final-font-size="22">
          <tspan x="-24.0" dy="18.02px">Handwritten note confirms</tspan>
          <tspan x="-24.0" dy="25.30px">the specific date and time</tspan>
          <tspan x="-24.0" dy="25.30px">of sighting</tspan>
        </text>
        <rect id="ITEM_2_BODY_FRAME" x="-380" y="24" width="356" height="78" fill="none"/>
      </g>
    </g>
    <g transform="translate(960, 620)">
      <circle cx="0" cy="0" r="18" fill="var(--panel)" stroke="var(--border)" stroke-width="4"/>
      <circle cx="0" cy="0" r="7" fill="var(--accent-3)"/>
      <line x1="0" y1="0" x2="220" y2="0" stroke="var(--accent-3)" stroke-width="16" stroke-linecap="round" opacity="0.18"/>
      <line x1="0" y1="0" x2="220" y2="0" stroke="var(--accent-3)" stroke-width="4" stroke-linecap="round"/>
      <circle cx="220" cy="0" r="72" fill="var(--accent-3)" opacity="0.14"/>
      <circle id="ITEM_3_NODE" cx="220" cy="0" r="56" fill="var(--panel)" stroke="var(--accent-3)" stroke-width="3"/>
      <circle id="ITEM_3_PAD" cx="220" cy="0" r="50" fill="var(--icon-pad-bg)" stroke="var(--primary-text)" opacity="0.94" fill-opacity="0.9" stroke-width="2"/>
      <circle id="ITEM_3_PAD_INNER" cx="220" cy="0" r="39.00" fill="var(--accent-5)" fill-opacity="0.22"/>
      <circle cx="220" cy="0" r="40" fill="none" stroke="var(--accent-3)" stroke-width="3" stroke-dasharray="6 4"/>
      <g id="ITEM_3_ICON" transform="translate(188, -32)" data-icon-size="64" stroke-dasharray="6 4">
        <g transform="translate(-9.237704918032787,-8.918032786885245) scale(0.639344262295082)">
          <path fill="#FFF" d="M106.13 42.46c-.07 1.32.89 2.47 2.24 2.43c1.2-.04 1.99-1.41 1.95-2.3s-1.08-1.97-2.14-2.03c-1.05-.08-2 1.1-2.05 1.9m-70.96-38c-.84.93-.57 2.31.21 2.82s1.95.46 2.52-.24c.51-.63.57-1.89-.21-2.67c-.67-.68-1.98-.51-2.52.09" opacity=".5"/>
          <path fill="#FFF" d="M113.6 95.23s1.15-3.3 1.84-3.34s1.69 3.3 1.69 3.3s3.42.04 3.65.54c.3.64-2.19 2.8-2.19 2.8s.81 3.23.42 3.61c-.42.42-3.38-1.27-3.38-1.27s-3.03 2.11-3.69 1.54c-.57-.5.61-3.92.61-3.92s-2.84-2.07-2.69-2.65c.23-.8 3.74-.61 3.74-.61m2.35-58.65c-.17 2 1.26 3.7 3.31 3.58c1.83-.11 3.28-1.65 3.07-3.56c-.23-2.06-1.57-2.93-3.18-2.99s-3.1 1.76-3.2 2.97M25.23 16.26c-.23 1.76.92 3.21 2.75 3.21c1.67 0 2.98-1.6 2.87-3.27c-.12-1.8-1.4-2.73-2.93-2.6c-1.42.12-2.56 1.6-2.69 2.66"/>
          <path fill="#FFF" d="M81.04 109.17c-.16 1.87 1.17 3.45 3.09 3.34c1.7-.1 3.06-1.54 2.86-3.32c-.21-1.93-1.46-2.74-2.96-2.79s-2.89 1.64-2.99 2.77" opacity=".5"/>
          <path fill="url(#SVGO3NbHdWj)" d="m36.85 74.12l-20.86 39.06l16.42 13.76h28.41l9.76-42.17z"/>
          <path fill="#848484" d="M19.36 66.25C18.27 65 12.64 55.62 9.83 48.59S4.21 31.87 4.21 31.87l45.16 5l74.07 41.56s-7.5 4.53-17.5 9.06s-15 5.63-16.09 5.94s-15.03.8-38.28-8.28c-22.83-8.9-32.21-18.9-32.21-18.9"/>
          <path fill="#9A9A9A" d="m16.3 30.12l-9.79-.92s-1.29 0-2.03.83s-.28 1.85-.28 1.85s20 18.21 55.94 32.51c38.69 15.39 63.29 14.06 63.29 14.06s1.08-.54 1.08-1.63s-.87-1.83-.87-1.83L62.73 46.71z"/>
          <path fill="#B0B0B0" d="M72.02 30.05c-15.98-6.85-27.35-5.47-32.35-5.31S6.52 29.2 6.52 29.2s23.47 19.76 55.81 31.95s61.31 13.83 61.31 13.83s-12.56-15.86-20.21-23.83c-10.28-10.7-17.19-15.01-31.41-21.1"/>
          <path fill="#E3E3DF" d="M31.86 27.89c-1.43-.83-13.07 1.27-13.07 5.05c0 2.81 6.09 6.17 12.03 9.3c5.21 2.75 14.11 6.49 14.51 4.09c.47-2.81-9.38-5.45-12.43-10.58c-2.24-3.77.88-6.73-1.04-7.86"/>
          <path fill="#9A9A9A" d="M103.38 54.91c-1.89.09-2.08 3.37-6.82 4.81s-14.86-1.22-16.11.25c-2.41 2.81 24.94 12.19 30.39 7.86c4.05-3.22-5.7-13-7.46-12.92"/>
          <path fill="#4B7179" d="M44.81 23.22s-1.48 2.48-1.2 4.25c.46 2.95 6 8.77 23.63 15.42c18.26 6.88 27.79 5.26 28.99 3.6c.87-1.21.83-3.88.83-3.88L69.82 30.05z"/>
          <path fill="#64DAC1" d="M44.81 23.22s12.3-21.77 36.06-12.95c21.52 7.99 16.19 32.34 16.19 32.34s-28.32-6.52-29.87-7.46c-1.56-.93-22.38-11.93-22.38-11.93"/>
          <path fill="#53B4A0" d="M68.72 38.73c-22.39-8.74-23.91-15.51-23.91-15.51s8.76-1.64 27.79 5.45C92.9 36.24 97.06 42.6 97.06 42.6s-9.42 3.51-28.34-3.87"/>
          <path fill="#53B4A0" d="M70.84 29.03s1.44-3.29 1.11-4.8c-.55-2.49-2.14-4.91-1.11-7.29c1.48-3.42 4.57-4.3 8.59-2.77c3.88 1.48 4.7 5.17 3.6 7.57c-1.48 3.23-3.78 2.77-5.45 4.25c-1.42 1.26-2.49 4.71-2.49 4.71z"/>
          <path fill="#9CFCEC" d="M51.23 27.74c2.41.97 4.2-3.92 8.89-8.44c5.57-5.37 13.66-7.13 13.11-8.7c-.63-1.86-10.74-.97-17.33 4.72c-6.23 5.39-7.35 11.33-4.67 12.42m36.53 12.21c-.13 1.92 3.65 2.62 5.69 1.02c2.73-2.13 2.5-7.02.45-7.23c-1.92-.19-1.66 2.43-2.94 3.58s-3.1 1.2-3.2 2.63"/>
          <ellipse cx="33.98" cy="66.89" fill="url(#SVG0ULPsbkS)" rx="9.78" ry="9.99"/>
          <ellipse cx="54.9" cy="77.63" fill="url(#SVGPuX3Pcww)" rx="11.02" ry="10.6"/>
          <ellipse cx="75.74" cy="84.05" fill="url(#SVGAAT19yaX)" rx="9.26" ry="9.2"/>
          <path fill="url(#SVG4SXfnfoJ)" d="M104.76 82.53c1.35 4.63-1.45 9.52-6.27 10.93s-9.82-1.2-11.17-5.83s1.45-9.52 6.27-10.93c4.81-1.41 9.81 1.2 11.17 5.83"/>
          <ellipse cx="20.3" cy="54.06" fill="none" stroke="url(#SVGxTkt4dzL)" stroke-miterlimit="10" rx="9.78" ry="9.99"/>
          <path fill="#53B4A0" d="M31.43 64.13c-1.76 1.86-1.72 4.82.47 6.44c2.12 1.57 4.48.63 5.57-.71s1.26-4.24-.47-5.73c-1.72-1.49-4.24-1.41-5.57 0"/>
          <path fill="#9CFCEC" d="M32.76 65.94c-.74.8-.83 2 .16 2.91c.94.86 2.43.55 2.98-.24c.67-.96.47-2.36-.39-2.91s-1.88-.71-2.75.24"/>
          <path fill="#53B4A0" d="M50.2 76.69c-.94 2.28.63 4.79 3.53 5.5c2.54.62 4.87-.63 5.42-2.91c.51-2.13-.59-4.61-3.3-5.26c-2.28-.55-4.61.15-5.65 2.67"/>
          <path fill="#9CFCEC" d="M53.18 76.58c-.74.79-.83 1.98.16 2.87c.94.85 2.43.54 2.98-.23c.67-.94.47-2.33-.39-2.87c-.87-.55-1.89-.7-2.75.23"/>
          <path fill="#53B4A0" d="M73.17 81.03c-1.82 1.6-1.82 4.46.06 6.3c1.64 1.6 4.02 1.49 5.54-.27c1.42-1.65 1.76-4.29.01-6c-1.48-1.44-3.59-1.8-5.61-.03"/>
          <path fill="#9CFCEC" d="M77.27 82.65c-.76-.78-1.92-.91-2.83.07c-.87.94-.61 2.49.13 3.08c.91.72 2.28.56 2.84-.32c.57-.86.75-1.91-.14-2.83"/>
          <path fill="#53B4A0" d="M97.34 80.83c-2.37-.42-4.65 1.28-4.96 3.8c-.27 2.2 1.27 3.93 3.59 4.02c2.17.09 4.47-1.22 4.76-3.56c.23-1.98-.76-3.8-3.39-4.26"/>
          <path fill="#9CFCEC" d="M94.49 84.65c-.03 1.1.69 2.04 2.04 2.02c1.3-.02 2.23-1.28 2.14-2.24c-.12-1.17-1.19-2.06-2.22-1.86s-1.92.79-1.96 2.08"/>
          <path fill="url(#SVG0FBToc8P)" d="M25.49 46.34c4.62 3.01 5.98 9.12 3.03 13.64s-9.08 5.75-13.7 2.74s-5.98-9.12-3.03-13.64s9.07-5.75 13.7-2.74"/>
          <path fill="#53B4A0" d="M18.79 50.62c-2.36.98-3.12 3.32-2.2 5.57c.86 2.12 3.06 3.06 5.18 2.36s3.53-3.14 2.36-5.65c-1.15-2.45-3.46-3.06-5.34-2.28"/>
          <path fill="#9CFCEC" d="M19.15 52.63c-.99.64-1.2 1.98-.49 3.04s2.19.99 2.97.35s.99-2.12.21-3.04s-1.89-.87-2.69-.35"/>
        </g>
      </g>
      <g transform="translate(332, 0)">
        <path id="ITEM_3_TEXT_BG" d="M -26 -50 L 378 -50 L 420 -10 L 420 148 L 34 148 L -50 86 L -50 18 Z" fill="var(--panel)" fill-opacity="0.96" stroke="var(--primary-text)" stroke-opacity="0.12" stroke-width="1.5" filter="url(#svge81537a4-shadow)"/>
        <rect x="392" y="-30" width="10" height="110" rx="5" fill="var(--accent-3)" opacity="0.7"/>
        <line x1="24" y1="10" x2="354" y2="10" stroke="var(--accent-3)" stroke-width="3" opacity="0.3"/>
        <text id="ITEM_3_HEAD" data-bg-id="ITEM_3_TEXT_BG" font-weight="700" font-size="32" fill="var(--accent-5)" x="24.0" y="-30.0" fill-opacity="1.0" stroke="none" style="font-size: 30px; font-family: Inter, Segoe UI, Kalam, Roboto, Helvetica, Arial, sans-serif; font-weight: 700; letter-spacing:-0.4px;" data-final-font-size="30">
          <tspan x="24.0" dy="26.25px">May Pang Witnessing</tspan>
        </text>
        <rect id="ITEM_3_HEAD_FRAME" x="24" y="-30" width="338" height="36" fill="none"/>
        <text id="ITEM_3_BODY" data-bg-id="ITEM_3_TEXT_BG" font-size="22" fill="var(--primary-text)" opacity="0.92" x="24.0" y="24.0" style="font-size: 22px; font-family: Inter, Segoe UI, Kalam, Roboto, Helvetica, Arial, sans-serif; font-weight: 400;" data-final-font-size="22">
          <tspan x="24.0" dy="18.02px">Partner describes a silent</tspan>
          <tspan x="24.0" dy="25.30px">saucer-shaped form with</tspan>
          <tspan x="24.0" dy="25.30px">flashing lights</tspan>
        </text>
        <rect id="ITEM_3_BODY_FRAME" x="24" y="24" width="356" height="78" fill="none"/>
      </g>
    </g>
    <g transform="translate(960, 800)">
      <circle cx="0" cy="0" r="18" fill="var(--panel)" stroke="var(--border)" stroke-width="4"/>
      <circle cx="0" cy="0" r="7" fill="var(--accent-4)"/>
      <line x1="0" y1="0" x2="-220" y2="0" stroke="var(--accent-4)" stroke-width="16" stroke-linecap="round" opacity="0.18"/>
      <line x1="0" y1="0" x2="-220" y2="0" stroke="var(--accent-4)" stroke-width="4" stroke-linecap="round"/>
      <circle cx="-220" cy="0" r="72" fill="var(--accent-4)" opacity="0.14"/>
      <circle id="ITEM_4_NODE" cx="-220" cy="0" r="56" fill="var(--panel)" stroke="var(--accent-4)" stroke-width="3"/>
      <circle id="ITEM_4_PAD" cx="-220" cy="0" r="50" fill="var(--icon-pad-bg)" stroke="var(--primary-text)" opacity="0.94" fill-opacity="0.9" stroke-width="2"/>
      <circle id="ITEM_4_PAD_INNER" cx="-220" cy="0" r="39.00" fill="var(--accent-6)" fill-opacity="0.22"/>
      <circle cx="-220" cy="0" r="40" fill="none" stroke="var(--accent-4)" stroke-width="3" stroke-dasharray="6 4"/>
      <g id="ITEM_4_ICON" transform="translate(-252, -32)" data-icon-size="64" stroke-dasharray="6 4">
        <g transform="translate(-12.571428571428571,-13.964285714285712) scale(2.7857142857142856)">
          <path d="M22.5247 17.94C26.6502 17.94 29.9947 14.5956 29.9947 10.47C29.9947 6.34443 26.6502 3 22.5247 3C18.3991 3 15.0547 6.34443 15.0547 10.47C15.0547 14.5956 18.3991 17.94 22.5247 17.94Z" fill="#533566"/>
          <path d="M2.64445 29.2101C1.81445 28.3301 1.78446 26.9601 2.56446 26.0401L15.1045 11.3401L21.2145 17.8201L5.80445 29.4801C4.84445 30.2101 3.47445 30.0901 2.64445 29.2101Z" fill="#9B9B9B"/>
          <path d="M18.9958 4.00515L28.9358 14.5552C29.5958 15.2552 29.5658 16.3552 28.8658 17.0051C28.1658 17.6651 27.0758 17.6352 26.4158 16.9352L16.4758 6.38515C15.8158 5.68515 15.8458 4.59517 16.5458 3.93517C17.2458 3.27517 18.3358 3.30515 18.9958 4.00515ZM15.4146 18.5302C15.4146 19.342 14.7565 20.0002 13.9446 20.0002C13.1328 20.0002 12.4746 19.342 12.4746 18.5302C12.4746 17.7183 13.1328 17.0602 13.9446 17.0602C14.7565 17.0602 15.4146 17.7183 15.4146 18.5302Z" fill="#BEBEBE"/>
        </g>
      </g>
      <g transform="translate(-332, 0)">
        <path id="ITEM_4_TEXT_BG" d="M 26 -50 L -378 -50 L -420 -10 L -420 148 L -34 148 L 50 86 L 50 18 Z" fill="var(--panel)" fill-opacity="0.96" stroke="var(--primary-text)" stroke-opacity="0.12" stroke-width="1.5" filter="url(#svge81537a4-shadow)"/>
        <rect x="-402" y="-30" width="10" height="110" rx="5" fill="var(--accent-4)" opacity="0.7"/>
        <line x1="-24" y1="10" x2="-354" y2="10" stroke="var(--accent-4)" stroke-width="3" opacity="0.3"/>
        <text id="ITEM_4_HEAD" data-bg-id="ITEM_4_TEXT_BG" text-anchor="end" font-weight="700" font-size="32" fill="var(--accent-6)" x="-24.0" y="-30.0" fill-opacity="1.0" stroke="none" style="font-size: 30px; font-family: Inter, Segoe UI, Kalam, Roboto, Helvetica, Arial, sans-serif; font-weight: 700; letter-spacing:-0.4px;" data-final-font-size="30">
          <tspan x="-24.0" dy="26.25px">Song Release</tspan>
        </text>
        <rect id="ITEM_4_HEAD_FRAME" x="-362" y="-30" width="338" height="36" fill="none"/>
        <text id="ITEM_4_BODY" data-bg-id="ITEM_4_TEXT_BG" text-anchor="end" font-size="22" fill="var(--primary-text)" opacity="0.92" x="-24.0" y="24.0" style="font-size: 25px; font-family: Inter, Segoe UI, Kalam, Roboto, Helvetica, Arial, sans-serif; font-weight: 400;" data-final-font-size="25">
          <tspan x="-24.0" dy="24.10px">Nobody Told Me incorporates</tspan>
          <tspan x="-24.0" dy="28.75px">the sighting into a pop lyric</tspan>
        </text>
        <rect id="ITEM_4_BODY_FRAME" x="-380" y="24" width="356" height="78" fill="none"/>
      </g>
    </g>
  </g>
</svg>
