<?xml version='1.0' encoding='utf-8'?>
<svg xmlns="http://www.w3.org/2000/svg" width="1920" height="1080" viewBox="0 0 1920 1080" data-theme="light">
  <style>
        @font-face {
            font-family: 'Inter';
            src: url('assets/fonts/Inter-Regular.ttf') format('truetype');
            font-weight: 400;
            font-style: normal;
            font-display: swap;
        }
        @font-face {
            font-family: 'Inter';
            src: url('assets/fonts/Inter-Bold.ttf') format('truetype');
            font-weight: 600;
            font-style: normal;
            font-display: swap;
        }
        @font-face {
            font-family: 'Inter';
            src: url('assets/fonts/Inter-Bold.ttf') format('truetype');
            font-weight: 800;
            font-style: normal;
            font-display: swap;
        }
        
:root {
    --background: #f8fafc;
    --panel: #ffffff;
    --primary-text: #0f172a;
    --muted-text: #64748b;
    --inverse-text: #ffffff;
    --border: #e2e8f0;
    --shadow-color: #000000;
    --icon-pad-bg: #1e293b;
    --art-glow: #0891b2;
    --art-glow-opacity: 0.10;
    --art-sheen: #ffffff;
    --art-sheen-opacity: 0.34;
    --art-shadow: #0f172a;
    --art-shadow-opacity: 0.14;
    --art-muted-line: #94a3b8;
    --art-panel-tint: #f1f5f9;
    --font-family: 'Inter', 'Segoe UI', 'Kalam', Roboto, Helvetica, Arial, sans-serif;
    --radius-xl: 16px;
    --font-family-headline: 'Inter', 'Segoe UI', 'Kalam', Roboto, Helvetica, Arial, sans-serif;
    --font-family-body: 'Inter', 'Segoe UI', 'Kalam', Roboto, Helvetica, Arial, sans-serif;
    --font-heading: 'Inter', 'Segoe UI', 'Kalam', Roboto, Helvetica, Arial, sans-serif;
    --font-body: 'Inter', 'Segoe UI', 'Kalam', Roboto, Helvetica, Arial, sans-serif;
    --font-size-h1: 56px;
    --font-size-h2: 40px;
    --font-size-h3: 28px;
    --font-size-body: 24px;
    --font-size-caption: 18px;
    --secondary-text: var(--muted-text);
    --panel-border: var(--border);
    --font-weight-normal: 400;
    --font-weight-medium: 500;
    --font-weight-semibold: 600;
    --font-weight-bold: 700;
    --spacing-gutter-pct: 0.07;
    --spacing-top-pct: 0.15;
    --spacing-bottom-pct: 0.07;
    --spacing-title-y-pct: 0.055;
    --accent-1: #0891b2;
    --accent-2: #0284c7;
    --accent-3: #2563eb;
    --accent-4: #4f46e5;
    --accent-5: #7c3aed;
    --accent-6: #0d9488;
}
:root[data-theme="dark"] {
    --background: #0f172a;
    --panel: #1e293b;
    --primary-text: #f1f5f9;
    --muted-text: #94a3b8;
    --inverse-text: #0f172a;
    --border: #334155;
    --shadow-color: #000000;
    --icon-pad-bg: #1e293b;
    --art-glow: #7dd3fc;
    --art-glow-opacity: 0.18;
    --art-sheen: #ffffff;
    --art-sheen-opacity: 0.18;
    --art-shadow: #000000;
    --art-shadow-opacity: 0.28;
    --art-muted-line: #64748b;
    --art-panel-tint: #1e293b;
    --accent-1: #22d3ee;
    --accent-2: #38bdf8;
    --accent-3: #60a5fa;
    --accent-4: #818cf8;
    --accent-5: #a78bfa;
    --accent-6: #2dd4bf;
}
:root[data-theme="light"] {
    --background: #f8fafc;
    --panel: #ffffff;
    --primary-text: #0f172a;
    --muted-text: #64748b;
    --inverse-text: #ffffff;
    --border: #e2e8f0;
    --shadow-color: #000000;
    --icon-pad-bg: #1e293b;
    --art-glow: #0891b2;
    --art-glow-opacity: 0.10;
    --art-sheen: #ffffff;
    --art-sheen-opacity: 0.34;
    --art-shadow: #0f172a;
    --art-shadow-opacity: 0.14;
    --art-muted-line: #94a3b8;
    --art-panel-tint: #f1f5f9;
    --accent-1: #0891b2;
    --accent-2: #0284c7;
    --accent-3: #2563eb;
    --accent-4: #4f46e5;
    --accent-5: #7c3aed;
    --accent-6: #0d9488;
}</style>
  <rect x="0" y="0" width="1.92E+3" height="1.08E+3" fill="#252a34" stroke="none" id="programmatic_background"/>
  <line id="HEADER_DECOR" x1="960.0" x2="1080.0" y1="90.0" y2="90.0" stroke="var(--accent-1)" stroke-width="6" stroke-linecap="round"/>
  <defs>
    <pattern id="svg425d655c-napkin-hatch" patternUnits="userSpaceOnUse" width="12" height="12">
      <path d="M -3 12 L 12 -3 M 0 15 L 15 0" fill="none" stroke="var(--primary-text)" stroke-width="1" stroke-opacity="0.05"/>
    </pattern>
    <radialGradient id="svg425d655c-universal-edge-vignette" cx="50%" cy="50%" r="72%">
      <stop offset="0%" stop-color="var(--background)" stop-opacity="0"/>
      <stop offset="72%" stop-color="var(--background)" stop-opacity="0.12"/>
      <stop offset="100%" stop-color="var(--primary-text)" stop-opacity="0.08"/>
    </radialGradient>
    <linearGradient id="svg425d655c-universal-surface-sheen" x1="0%" y1="0%" x2="100%" y2="100%">
      <stop offset="0%" stop-color="var(--art-sheen)" stop-opacity="var(--art-sheen-opacity)"/>
      <stop offset="46%" stop-color="var(--art-sheen)" stop-opacity="0.035"/>
      <stop offset="100%" stop-color="var(--art-panel-tint)" stop-opacity="0.14"/>
    </linearGradient>
    <radialGradient id="svg425d655c-universal-icon-aura" cx="50%" cy="42%" r="64%">
      <stop offset="0%" stop-color="var(--art-glow)" stop-opacity="var(--art-glow-opacity)"/>
      <stop offset="100%" stop-color="var(--background)" stop-opacity="0"/>
    </radialGradient>
    <filter id="svg425d655c-text-glow" x="-20%" y="-20%" width="140%" height="140%">
      <feDropShadow dx="0" dy="0" stdDeviation="2" flood-color="#000000" flood-opacity="0.4"/>
    </filter>
    <filter id="svg425d655c-shadow" x="-30%" y="-30%" width="160%" height="160%">
      <feDropShadow dx="0" dy="2" stdDeviation="3" flood-color="#000000" flood-opacity="0.08"/>
      <feDropShadow dx="0" dy="6" stdDeviation="10" flood-color="#000000" flood-opacity="0.12"/>
    </filter>
    <marker id="svg425d655c-arrowhead" markerWidth="10" markerHeight="7" refX="9" refY="3.5" orient="auto" markerUnits="strokeWidth">
      <polygon points="0 0, 10 3.5, 0 7" fill="var(--muted-text)" opacity="0.6"/>
    </marker>
  </defs>
  <rect width="100%" height="100%" fill="var(--background)" id="CANVAS_BG"/>
  <rect width="100%" height="100%" fill="url(#svg425d655c-napkin-hatch)"/>
  <rect id="UNIVERSAL_EDGE_VIGNETTE" width="100%" height="100%" fill="url(#svg425d655c-universal-edge-vignette)" opacity="0.62"/>
  <text id="TITLE" x="960.0" y="59" text-anchor="middle" font-weight="800" font-size="63" fill="#0f172a" style="font-size: 60px; font-family: Inter, Segoe UI, Kalam, Roboto, Helvetica, Arial, sans-serif; font-weight: 700; letter-spacing:-1.2px;" data-final-font-size="60">
    <tspan x="960.0" dy="68.00px">NASA UAP Reporting Barriers</tspan>
  </text>
  <rect id="TITLE_FRAME" x="134" y="59" width="1652" height="103" fill="none"/>
  <g id="DIAGRAM_SCALER" transform="translate(50.3, 35.5) scale(0.95)">
    <g transform="translate(960.0, 165.0)">
      <g transform="translate(0.0, 0.0)">
        <rect id="ITEM_1_BG" x="-600" y="-30" width="1200" height="120" rx="12" fill="var(--accent-4)" stroke="var(--accent-1)" stroke-width="2" fill-opacity="1.0"/>
        <g transform="translate(0.0, 0.0)">
          <text id="ITEM_1_HEAD" font-weight="bold" font-size="30" fill="var(--inverse-text)" x="-300.0" y="-25.0" data-bg-id="ITEM_1_BG" fill-opacity="1.0" style="font-size: 30px; font-family: Inter, Segoe UI, Kalam, Roboto, Helvetica, Arial, sans-serif; font-weight: 700; letter-spacing:-0.4px;" data-final-font-size="30">
            <tspan x="-300.0" dy="25.75px">Social Stigma</tspan>
          </text>
          <rect id="ITEM_1_HEAD_FRAME" x="-300" y="-25" width="850" height="35" fill="none"/>
          <text id="ITEM_1_BODY" font-size="21" fill="var(--inverse-text)" x="-300.0" y="15.0" data-bg-id="ITEM_1_BG" style="font-size: 26px; font-family: Inter, Segoe UI, Kalam, Roboto, Helvetica, Arial, sans-serif; font-weight: 400;" data-final-font-size="26">
            <tspan x="-300.0" dy="20.84px">Fear of ridicule prevents</tspan>
            <tspan x="-300.0" dy="29.90px">pilots from documenting events</tspan>
          </text>
          <rect id="ITEM_1_BODY_FRAME" x="-300" y="15" width="380" height="60" fill="none"/>
        </g>
        <circle id="ITEM_1_PAD" cx="-450.0" cy="60.0" r="50" fill="var(--icon-pad-bg)" stroke="var(--primary-text)" opacity="0.9" fill-opacity="0.9" stroke-width="2"/>
        <circle id="ITEM_1_PAD_INNER" cx="-450.0" cy="60.0" r="39.00" fill="var(--accent-4)" fill-opacity="0.22"/>
        <circle cx="-450.0" cy="60.0" r="40.0" fill="none" stroke="var(--accent-1)" stroke-width="3" stroke-dasharray="6 4"/>
        <g id="ITEM_1_ICON" transform="translate(-482.0, 28.0)" data-icon-size="64" stroke-dasharray="6 4">
          <g transform="translate(-10.305084745762711,-10.305084745762713) scale(3.5254237288135593)" vector-effect="non-scaling-stroke" stroke-width="2.48" stroke-linecap="round" stroke-linejoin="round" stroke-opacity="1.0">
            <path d="M3 11h3a2 2 0 0 1 2 2v3a2 2 0 0 1-2 2H5a2 2 0 0 1-2-2v-5Zm0 0a9 9 0 1 1 18 0m0 0v5a2 2 0 0 1-2 2h-1a2 2 0 0 1-2-2v-3a2 2 0 0 1 2-2h3Z" vector-effect="non-scaling-stroke" fill="none" stroke="#f1f5f9"/>
            <path d="M21 16v2a4 4 0 0 1-4 4h-5" vector-effect="non-scaling-stroke" fill="none" stroke="#f1f5f9"/>
          </g>
        </g>
      </g>
      <g transform="translate(0.0, 150.0)">
        <rect id="ITEM_2_BG" x="-600" y="-30" width="1200" height="120" rx="12" fill="var(--accent-5)" stroke="var(--accent-2)" stroke-width="2" fill-opacity="1.0"/>
        <g transform="translate(0.0, 0.0)">
          <text id="ITEM_2_HEAD" font-weight="bold" font-size="30" fill="var(--inverse-text)" x="-300.0" y="-25.0" data-bg-id="ITEM_2_BG" fill-opacity="1.0" style="font-size: 30px; font-family: Inter, Segoe UI, Kalam, Roboto, Helvetica, Arial, sans-serif; font-weight: 700; letter-spacing:-0.4px;" data-final-font-size="30">
            <tspan x="-300.0" dy="25.75px">Reporting Attrition</tspan>
          </text>
          <rect id="ITEM_2_HEAD_FRAME" x="-300" y="-25" width="850" height="35" fill="none"/>
          <text id="ITEM_2_BODY" font-size="21" fill="var(--inverse-text)" x="-300.0" y="15.0" data-bg-id="ITEM_2_BG" style="font-size: 26px; font-family: Inter, Segoe UI, Kalam, Roboto, Helvetica, Arial, sans-serif; font-weight: 400;" data-final-font-size="26">
            <tspan x="-300.0" dy="20.84px">Stigma reduces the volume</tspan>
            <tspan x="-300.0" dy="29.90px">of available scientific data</tspan>
          </text>
          <rect id="ITEM_2_BODY_FRAME" x="-300" y="15" width="380" height="60" fill="none"/>
        </g>
        <circle id="ITEM_2_PAD" cx="-450.0" cy="60.0" r="50" fill="var(--icon-pad-bg)" stroke="var(--primary-text)" opacity="0.9" fill-opacity="0.9" stroke-width="2"/>
        <circle id="ITEM_2_PAD_INNER" cx="-450.0" cy="60.0" r="39.00" fill="var(--accent-5)" fill-opacity="0.22"/>
        <circle cx="-450.0" cy="60.0" r="40.0" fill="none" stroke="var(--accent-1)" stroke-width="3" stroke-dasharray="6 4"/>
        <g id="ITEM_2_ICON" transform="translate(-482.0, 28.0)" data-icon-size="64" stroke-dasharray="6 4">
          <g transform="translate(-12.571428571428571,-15.357142857142858) scale(2.7857142857142856)">
            <path d="M15.385 7.39062L12.9075 4.915C12.3219 4.32875 11.5275 4 10.6987 4H4.125C2.95125 4 2 4.95125 2 6.125V13.5H12.985H30V10.1375C30 8.96375 29.0488 8.0125 27.875 8.0125H16.8875C16.3237 8.0125 15.7838 7.78875 15.385 7.39062Z" fill="#FFB02E"/>
            <path d="M27.875 30H4.125C2.95125 30 2 29.0545 2 27.8878V13.1122C2 11.9455 2.95125 11 4.125 11H27.875C29.0488 11 30 11.9455 30 13.1122V27.8878C30 29.0545 29.0488 30 27.875 30Z" fill="#FCD53F"/>
          </g>
        </g>
      </g>
      <g transform="translate(0.0, 300.0)">
        <rect id="ITEM_3_BG" x="-600" y="-30" width="1200" height="120" rx="12" fill="var(--accent-6)" stroke="var(--accent-3)" stroke-width="2" fill-opacity="1.0"/>
        <g transform="translate(0.0, 0.0)">
          <text id="ITEM_3_HEAD" font-weight="bold" font-size="30" fill="var(--primary-text)" x="-300.0" y="-25.0" data-bg-id="ITEM_3_BG" fill-opacity="1.0" style="font-size: 30px; font-family: Inter, Segoe UI, Kalam, Roboto, Helvetica, Arial, sans-serif; font-weight: 700; letter-spacing:-0.4px;" data-final-font-size="30">
            <tspan x="-300.0" dy="25.75px">Normalizing Conversation</tspan>
          </text>
          <rect id="ITEM_3_HEAD_FRAME" x="-300" y="-25" width="850" height="35" fill="none"/>
          <text id="ITEM_3_BODY" font-size="21" fill="var(--primary-text)" x="-300.0" y="15.0" data-bg-id="ITEM_3_BG" style="font-size: 23px; font-family: Inter, Segoe UI, Kalam, Roboto, Helvetica, Arial, sans-serif; font-weight: 400;" data-final-font-size="23">
            <tspan x="-300.0" dy="19.82px">Celebrities signal that curiosity</tspan>
            <tspan x="-300.0" dy="26.45px">is acceptable to discuss</tspan>
          </text>
          <rect id="ITEM_3_BODY_FRAME" x="-300" y="15" width="380" height="60" fill="none"/>
        </g>
        <circle id="ITEM_3_PAD" cx="-450.0" cy="60.0" r="50" fill="var(--icon-pad-bg)" stroke="var(--primary-text)" opacity="0.9" fill-opacity="0.9" stroke-width="2"/>
        <circle id="ITEM_3_PAD_INNER" cx="-450.0" cy="60.0" r="39.00" fill="var(--accent-6)" fill-opacity="0.22"/>
        <circle cx="-450.0" cy="60.0" r="40.0" fill="none" stroke="var(--accent-2)" stroke-width="3" stroke-dasharray="6 4"/>
        <g id="ITEM_3_ICON" transform="translate(-482.0, 28.0)" data-icon-size="64" stroke-dasharray="6 4">
          <g transform="translate(-14.222222222222221,-15.666666666666666) scale(2.888888888888889)">
            <path d="M13 8H11V15H13V8Z" fill="#7D4533"/>
            <path d="M21 8H19V15H21V8Z" fill="#7D4533"/>
            <path d="M6.79089 28.3796L8.36926 20.5854H11.1907L8.59622 28.3796C7.8395 30.8443 6.499 29.8606 6.79089 28.3796Z" fill="#7D4533"/>
            <path d="M23.6307 20.5854L25.2091 28.3796C25.501 29.8606 24.1605 30.8443 23.4038 28.3796L20.8093 20.5854H23.6307Z" fill="#7D4533"/>
            <path d="M11.0009 20.5953L11.1221 25.9824C11.1659 27.515 12.4155 27.3156 12.4732 25.9824L13.0102 20.5953H11.0009Z" fill="#402A32"/>
            <path d="M21 20.5953L20.8788 25.9824C20.8349 27.515 19.5854 27.3156 19.5276 25.9824L18.9907 20.5953H21Z" fill="#402A32"/>
            <path d="M11 3C9.89543 3 9 3.89543 9 5V6C9 7.65685 10.3431 9 12 9H20C21.6569 9 23 7.65685 23 6V5C23 3.89543 22.1046 3 21 3H11Z" fill="#A56953"/>
            <path d="M11 14C9 14 7 17.5 7 19.25C7 20.2165 7.7835 21 8.75 21H23.25C24.2165 21 25 20.2165 25 19.25C25 17.5 23 14 21 14H11Z" fill="#A56953"/>
          </g>
        </g>
      </g>
      <g transform="translate(0.0, 450.0)">
        <rect id="ITEM_4_BG" x="-600" y="-30" width="1200" height="120" rx="12" fill="var(--accent-1)" stroke="var(--accent-4)" stroke-width="2" fill-opacity="1.0"/>
        <g transform="translate(0.0, 0.0)">
          <text id="ITEM_4_HEAD" font-weight="bold" font-size="30" fill="var(--primary-text)" x="-300.0" y="-25.0" data-bg-id="ITEM_4_BG" fill-opacity="1.0" style="font-size: 30px; font-family: Inter, Segoe UI, Kalam, Roboto, Helvetica, Arial, sans-serif; font-weight: 700; letter-spacing:-0.4px;" data-final-font-size="30">
            <tspan x="-300.0" dy="25.75px">Broadening Audience</tspan>
          </text>
          <rect id="ITEM_4_HEAD_FRAME" x="-300" y="-25" width="850" height="35" fill="none"/>
          <text id="ITEM_4_BODY" font-size="21" fill="var(--primary-text)" x="-300.0" y="15.0" data-bg-id="ITEM_4_BG" style="font-size: 25px; font-family: Inter, Segoe UI, Kalam, Roboto, Helvetica, Arial, sans-serif; font-weight: 400;" data-final-font-size="25">
            <tspan x="-300.0" dy="20.50px">Interviews reach people outside</tspan>
            <tspan x="-300.0" dy="28.75px">of specialist aviation circles</tspan>
          </text>
          <rect id="ITEM_4_BODY_FRAME" x="-300" y="15" width="380" height="60" fill="none"/>
        </g>
        <circle id="ITEM_4_PAD" cx="-450.0" cy="60.0" r="50" fill="var(--icon-pad-bg)" stroke="var(--primary-text)" opacity="0.9" fill-opacity="0.9" stroke-width="2"/>
        <circle id="ITEM_4_PAD_INNER" cx="-450.0" cy="60.0" r="39.00" fill="var(--accent-1)" fill-opacity="0.22"/>
        <circle cx="-450.0" cy="60.0" r="40.0" fill="none" stroke="var(--accent-3)" stroke-width="3" stroke-dasharray="6 4"/>
        <g id="ITEM_4_ICON" transform="translate(-482.0, 28.0)" data-icon-size="64" stroke-dasharray="6 4">
          <g transform="translate(-11.03448275862069,-11.03448275862069) scale(3.586206896551724)" vector-effect="non-scaling-stroke" stroke-width="2.48" stroke-linecap="round" stroke-linejoin="round" stroke-opacity="1.0">
            <path d="M6 6L18 6" stroke="#f1f5f9" vector-effect="non-scaling-stroke" fill="none"/>
            <path d="M6 10H18" stroke="#f1f5f9" vector-effect="non-scaling-stroke" fill="none"/>
            <path d="M13 14L18 14" stroke="#f1f5f9" vector-effect="non-scaling-stroke" fill="none"/>
            <path d="M13 18L18 18" stroke="#f1f5f9" vector-effect="non-scaling-stroke" fill="none"/>
            <path d="M2 21.4V2.6C2 2.26863 2.26863 2 2.6 2H21.4C21.7314 2 22 2.26863 22 2.6V21.4C22 21.7314 21.7314 22 21.4 22H2.6C2.26863 22 2 21.7314 2 21.4Z" stroke="#f1f5f9" vector-effect="non-scaling-stroke" fill="none"/>
            <path d="M6 18V14H9V18H6Z" stroke="#f1f5f9" vector-effect="non-scaling-stroke" fill="none"/>
          </g>
        </g>
      </g>
      <g transform="translate(0.0, 600.0)">
        <rect id="ITEM_5_BG" x="-600" y="-30" width="1200" height="120" rx="12" fill="var(--accent-2)" stroke="var(--accent-5)" stroke-width="2" fill-opacity="1.0"/>
        <g transform="translate(0.0, 0.0)">
          <text id="ITEM_5_HEAD" font-weight="bold" font-size="30" fill="var(--primary-text)" x="-300.0" y="-25.0" data-bg-id="ITEM_5_BG" fill-opacity="1.0" style="font-size: 30px; font-family: Inter, Segoe UI, Kalam, Roboto, Helvetica, Arial, sans-serif; font-weight: 700; letter-spacing:-0.4px;" data-final-font-size="30">
            <tspan x="-300.0" dy="25.75px">Separating Curiosity</tspan>
          </text>
          <rect id="ITEM_5_HEAD_FRAME" x="-300" y="-25" width="850" height="35" fill="none"/>
          <text id="ITEM_5_BODY" font-size="21" fill="var(--primary-text)" x="-300.0" y="15.0" data-bg-id="ITEM_5_BG" style="font-size: 23px; font-family: Inter, Segoe UI, Kalam, Roboto, Helvetica, Arial, sans-serif; font-weight: 400;" data-final-font-size="23">
            <tspan x="-300.0" dy="19.82px">Framing experiences as uncertainty</tspan>
            <tspan x="-300.0" dy="26.45px">rather than alien belief</tspan>
          </text>
          <rect id="ITEM_5_BODY_FRAME" x="-300" y="15" width="380" height="60" fill="none"/>
        </g>
        <circle id="ITEM_5_PAD" cx="-450.0" cy="60.0" r="50" fill="var(--icon-pad-bg)" stroke="var(--primary-text)" opacity="0.9" fill-opacity="0.9" stroke-width="2"/>
        <circle id="ITEM_5_PAD_INNER" cx="-450.0" cy="60.0" r="39.00" fill="var(--accent-2)" fill-opacity="0.22"/>
        <circle cx="-450.0" cy="60.0" r="40.0" fill="none" stroke="var(--accent-4)" stroke-width="3" stroke-dasharray="6 4"/>
        <g id="ITEM_5_ICON" transform="translate(-482.0, 28.0)" data-icon-size="64" stroke-dasharray="6 4">
          <g transform="translate(-7.0,-7.0) scale(5.571428571428571)" vector-effect="non-scaling-stroke" stroke-width="2.48" stroke-linecap="round" stroke-linejoin="round" stroke-opacity="1.0">
            <path id="Vector" fill="none" d="M6 11.5a5.5 5.5 0 1 0 0 -11 5.5 5.5 0 0 0 0 11Z" vector-effect="non-scaling-stroke" stroke="#f1f5f9"/>
            <path id="Vector_2" stroke="#f1f5f9" d="M6 11.5a5.5 5.5 0 1 0 0 -11 5.5 5.5 0 0 0 0 11Z" vector-effect="non-scaling-stroke" fill="none"/>
            <path id="Vector_3" stroke="#f1f5f9" d="M13.5 13.5 10 10" vector-effect="non-scaling-stroke" fill="none"/>
          </g>
        </g>
      </g>
    </g>
  </g>
</svg>
