<?xml version='1.0' encoding='utf-8'?>
<svg xmlns="http://www.w3.org/2000/svg" width="1920" height="1080" viewBox="0 0 1920 1080" data-theme="light">
  <style>
        @font-face {
            font-family: 'Inter';
            src: url('assets/fonts/Inter-Regular.ttf') format('truetype');
            font-weight: 400;
            font-style: normal;
            font-display: swap;
        }
        @font-face {
            font-family: 'Inter';
            src: url('assets/fonts/Inter-Bold.ttf') format('truetype');
            font-weight: 600;
            font-style: normal;
            font-display: swap;
        }
        @font-face {
            font-family: 'Inter';
            src: url('assets/fonts/Inter-Bold.ttf') format('truetype');
            font-weight: 800;
            font-style: normal;
            font-display: swap;
        }
        
:root {
    --background: #f8fafc;
    --panel: #ffffff;
    --primary-text: #0f172a;
    --muted-text: #64748b;
    --inverse-text: #ffffff;
    --border: #e2e8f0;
    --shadow-color: #000000;
    --icon-pad-bg: #1e293b;
    --art-glow: #0891b2;
    --art-glow-opacity: 0.10;
    --art-sheen: #ffffff;
    --art-sheen-opacity: 0.34;
    --art-shadow: #0f172a;
    --art-shadow-opacity: 0.14;
    --art-muted-line: #94a3b8;
    --art-panel-tint: #f1f5f9;
    --font-family: 'Inter', 'Segoe UI', 'Kalam', Roboto, Helvetica, Arial, sans-serif;
    --radius-xl: 16px;
    --font-family-headline: 'Inter', 'Segoe UI', 'Kalam', Roboto, Helvetica, Arial, sans-serif;
    --font-family-body: 'Inter', 'Segoe UI', 'Kalam', Roboto, Helvetica, Arial, sans-serif;
    --font-heading: 'Inter', 'Segoe UI', 'Kalam', Roboto, Helvetica, Arial, sans-serif;
    --font-body: 'Inter', 'Segoe UI', 'Kalam', Roboto, Helvetica, Arial, sans-serif;
    --font-size-h1: 56px;
    --font-size-h2: 40px;
    --font-size-h3: 28px;
    --font-size-body: 24px;
    --font-size-caption: 18px;
    --secondary-text: var(--muted-text);
    --panel-border: var(--border);
    --font-weight-normal: 400;
    --font-weight-medium: 500;
    --font-weight-semibold: 600;
    --font-weight-bold: 700;
    --spacing-gutter-pct: 0.07;
    --spacing-top-pct: 0.15;
    --spacing-bottom-pct: 0.07;
    --spacing-title-y-pct: 0.055;
    --accent-1: #d97706;
    --accent-2: #ea580c;
    --accent-3: #dc2626;
    --accent-4: #65a30d;
    --accent-5: #16a34a;
    --accent-6: #92400e;
}
:root[data-theme="dark"] {
    --background: #0f172a;
    --panel: #1e293b;
    --primary-text: #f1f5f9;
    --muted-text: #94a3b8;
    --inverse-text: #0f172a;
    --border: #334155;
    --shadow-color: #000000;
    --icon-pad-bg: #1e293b;
    --art-glow: #7dd3fc;
    --art-glow-opacity: 0.18;
    --art-sheen: #ffffff;
    --art-sheen-opacity: 0.18;
    --art-shadow: #000000;
    --art-shadow-opacity: 0.28;
    --art-muted-line: #64748b;
    --art-panel-tint: #1e293b;
    --accent-1: #fbbf24;
    --accent-2: #fb923c;
    --accent-3: #f87171;
    --accent-4: #a3e635;
    --accent-5: #4ade80;
    --accent-6: #d4a574;
}
:root[data-theme="light"] {
    --background: #f8fafc;
    --panel: #ffffff;
    --primary-text: #0f172a;
    --muted-text: #64748b;
    --inverse-text: #ffffff;
    --border: #e2e8f0;
    --shadow-color: #000000;
    --icon-pad-bg: #1e293b;
    --art-glow: #0891b2;
    --art-glow-opacity: 0.10;
    --art-sheen: #ffffff;
    --art-sheen-opacity: 0.34;
    --art-shadow: #0f172a;
    --art-shadow-opacity: 0.14;
    --art-muted-line: #94a3b8;
    --art-panel-tint: #f1f5f9;
    --accent-1: #d97706;
    --accent-2: #ea580c;
    --accent-3: #dc2626;
    --accent-4: #65a30d;
    --accent-5: #16a34a;
    --accent-6: #92400e;
}</style>
  <rect x="0" y="0" width="1.92E+3" height="1.08E+3" fill="#252a34" stroke="none" id="programmatic_background"/>
  <line id="HEADER_DECOR" x1="960.0" x2="1080.0" y1="79.0" y2="79.0" stroke="var(--accent-1)" stroke-width="6" stroke-linecap="round"/>
  <defs>
    <pattern id="svg55263de9-napkin-hatch" patternUnits="userSpaceOnUse" width="12" height="12">
      <path d="M -3 12 L 12 -3 M 0 15 L 15 0" fill="none" stroke="var(--primary-text)" stroke-width="1" stroke-opacity="0.05"/>
    </pattern>
    <filter id="svg55263de9-shadow" x="-30%" y="-30%" width="160%" height="160%">
      <feDropShadow dx="0" dy="2" stdDeviation="3" flood-color="#000000" flood-opacity="0.08"/>
    </filter>
    <linearGradient id="svg55263de9-summit-grad" x1="0%" y1="0%" x2="0%" y2="100%">
      <stop offset="0%" stop-color="var(--muted-text)"/>
      <stop offset="100%" stop-color="var(--panel)"/>
    </linearGradient>
    <linearGradient id="svg55263de9-snow-grad" x1="0%" y1="0%" x2="0%" y2="100%">
      <stop offset="0%" stop-color="var(--background)"/>
      <stop offset="100%" stop-color="var(--muted-text)"/>
    </linearGradient>
    <radialGradient id="svg55263de9-universal-edge-vignette" cx="50%" cy="50%" r="72%">
      <stop offset="0%" stop-color="var(--background)" stop-opacity="0"/>
      <stop offset="72%" stop-color="var(--background)" stop-opacity="0.12"/>
      <stop offset="100%" stop-color="var(--primary-text)" stop-opacity="0.08"/>
    </radialGradient>
    <linearGradient id="svg55263de9-universal-surface-sheen" x1="0%" y1="0%" x2="100%" y2="100%">
      <stop offset="0%" stop-color="var(--art-sheen)" stop-opacity="var(--art-sheen-opacity)"/>
      <stop offset="46%" stop-color="var(--art-sheen)" stop-opacity="0.035"/>
      <stop offset="100%" stop-color="var(--art-panel-tint)" stop-opacity="0.14"/>
    </linearGradient>
    <radialGradient id="svg55263de9-universal-icon-aura" cx="50%" cy="42%" r="64%">
      <stop offset="0%" stop-color="var(--art-glow)" stop-opacity="var(--art-glow-opacity)"/>
      <stop offset="100%" stop-color="var(--background)" stop-opacity="0"/>
    </radialGradient>
    <filter id="svg55263de9-text-glow" x="-20%" y="-20%" width="140%" height="140%">
      <feDropShadow dx="0" dy="0" stdDeviation="2" flood-color="#000000" flood-opacity="0.4"/>
    </filter>
    <marker id="svg55263de9-arrowhead" markerWidth="10" markerHeight="7" refX="9" refY="3.5" orient="auto" markerUnits="strokeWidth">
      <polygon points="0 0, 10 3.5, 0 7" fill="var(--muted-text)" opacity="0.6"/>
    </marker>
  </defs>
  <rect width="100%" height="100%" fill="var(--background)" id="CANVAS_BG"/>
  <rect width="100%" height="100%" fill="url(#svg55263de9-napkin-hatch)"/>
  <rect id="UNIVERSAL_EDGE_VIGNETTE" width="100%" height="100%" fill="url(#svg55263de9-universal-edge-vignette)" opacity="0.62"/>
  <text id="TITLE" x="960.0" y="59" font-size="48" font-weight="700" fill="#0f172a" text-anchor="middle" style="font-size: 60px; font-family: Inter, Segoe UI, Kalam, Roboto, Helvetica, Arial, sans-serif; font-weight: 700; letter-spacing:-1.2px;" data-final-font-size="60">
    <tspan x="960.0" dy="68.00px">Advocacy Wins for Aerospace Safety</tspan>
  </text>
  <rect id="TITLE_FRAME" x="134" y="10" width="1652" height="60" fill="none"/>
  <g id="DIAGRAM_MAIN">
    <!-- Mountain Base -->
    <path d="M -100 1080  L -25.0 1007.0 L 65.0 874.0 L 65.0 821.0 L 155.0 688.0 L 245.0 635.0 L 245.0 502.0 L 335.0 449.0 L 425.0 316.0 L 425.0 263.0 L 500 150 L 580.0 258.0 L 600.0 381.0 L 700.0 414.0 L 720.0 537.0 L 820.0 660.0 L 840.0 693.0 L 940.0 816.0 L 960.0 939.0 L 1060.0 972.0 L 1100 1080 Z" fill="url(#svg55263de9-summit-grad)" stroke="var(--primary-text)" stroke-width="3" stroke-linejoin="round" stroke-opacity="0.4"/>
    <!-- Snow Cap -->
    <path d="M 380 300 L 420 280 L 470 310 L 520 280 L 560 320 L 600 290 L 640 340 L 500 150 Z" fill="url(#svg55263de9-snow-grad)" stroke="var(--primary-text)" stroke-width="2" stroke-linejoin="round" stroke-opacity="0.6"/>
    <!-- Connecting Zig-Zag Trail -->
    <path d="M 983.8709677419354 900.0 L 833.3333333333333 666.6666666666666 L 682.7956989247311 433.3333333333333 L 532.258064516129 240.0" fill="none" stroke="var(--muted-text)" stroke-width="4" stroke-dasharray="12 10" stroke-linecap="round" opacity="0.6"/>
    <circle id="ITEM_1_BORDER" cx="983.8709677419354" cy="900.0" r="37" fill="var(--background)" stroke="var(--accent-1)" stroke-width="3"/>
    <circle id="ITEM_1_STROKE" cx="983.8709677419354" cy="900.0" r="45" fill="transparent" stroke="var(--accent-6)" stroke-width="3" stroke-dasharray="6 4" stroke-opacity="1.0"/>
    <circle id="ITEM_1_PAD" cx="983.87" cy="900.00" r="40.00" fill="var(--icon-pad-bg)" stroke="var(--primary-text)" stroke-width="2" opacity="0.9"/>
    <circle id="ITEM_1_PAD_INNER" cx="983.87" cy="900.00" r="31.20" fill="var(--accent-6)" fill-opacity="0.22"/>
    <g id="ITEM_1_ICON" transform="translate(958.8709677419354, 875.0)" data-icon-size="50" stroke-dasharray="6 4">
      <g transform="translate(-10.65714285714286,-11.771428571428572) scale(2.2285714285714286)">
        <path d="M22.5247 17.94C26.6502 17.94 29.9947 14.5956 29.9947 10.47C29.9947 6.34443 26.6502 3 22.5247 3C18.3991 3 15.0547 6.34443 15.0547 10.47C15.0547 14.5956 18.3991 17.94 22.5247 17.94Z" fill="#533566"/>
        <path d="M2.64445 29.2101C1.81445 28.3301 1.78446 26.9601 2.56446 26.0401L15.1045 11.3401L21.2145 17.8201L5.80445 29.4801C4.84445 30.2101 3.47445 30.0901 2.64445 29.2101Z" fill="#9B9B9B"/>
        <path d="M18.9958 4.00515L28.9358 14.5552C29.5958 15.2552 29.5658 16.3552 28.8658 17.0051C28.1658 17.6651 27.0758 17.6352 26.4158 16.9352L16.4758 6.38515C15.8158 5.68515 15.8458 4.59517 16.5458 3.93517C17.2458 3.27517 18.3358 3.30515 18.9958 4.00515ZM15.4146 18.5302C15.4146 19.342 14.7565 20.0002 13.9446 20.0002C13.1328 20.0002 12.4746 19.342 12.4746 18.5302C12.4746 17.7183 13.1328 17.0602 13.9446 17.0602C14.7565 17.0602 15.4146 17.7183 15.4146 18.5302Z" fill="#BEBEBE"/>
      </g>
    </g>
    <!-- Connector line to the rigid text column -->
    <line id="ITEM_1_CONN" x1="1028.8709677419354" y1="900.0" x2="1230" y2="900.0" stroke="var(--accent-6)" stroke-width="2" stroke-dasharray="6 4" opacity="0.6" stroke-opacity="1.0"/>
    <circle id="ITEM_1_DOT" cx="1230" cy="900.0" r="5" fill="var(--accent-6)" fill-opacity="1.0"/>
    <rect id="ITEM_1_HEAD_FRAME" x="1250" y="840.0" width="620" height="45" fill="none"/>
    <rect id="ITEM_1_TEXT_BG" x="1232" y="826" width="656" height="182" rx="22" fill="var(--panel)" fill-opacity="0.94" stroke="var(--accent-1)" stroke-width="2"/>
    <text id="ITEM_1_HEAD" x="1250.0" y="840.0" font-weight="bold" font-size="28" fill="var(--accent-6)" text-anchor="start" data-bg-id="ITEM_1_TEXT_BG" fill-opacity="1.0" style="font-size: 30px; font-family: Inter, Segoe UI, Kalam, Roboto, Helvetica, Arial, sans-serif; font-weight: 700; letter-spacing:-0.4px;" data-final-font-size="30">
      <tspan x="1250.0" dy="30.75px">Public Awareness</tspan>
    </text>
    <rect id="ITEM_1_BODY_FRAME" x="1250" y="905.0" width="620" height="85" fill="none"/>
    <text id="ITEM_1_BODY" x="1250.0" y="905.0" font-size="18" fill="var(--primary-text)" text-anchor="start" data-bg-id="ITEM_1_TEXT_BG" style="font-size: 26px; font-family: Inter, Segoe UI, Kalam, Roboto, Helvetica, Arial, sans-serif; font-weight: 400;" data-final-font-size="26">
      <tspan x="1250.0" dy="25.84px">Celebrity figures move topics</tspan>
      <tspan x="1250.0" dy="29.90px">into mainstream media coverage</tspan>
    </text>
    <circle id="ITEM_2_BORDER" cx="833.3333333333333" cy="666.6666666666666" r="37" fill="var(--background)" stroke="var(--accent-2)" stroke-width="3"/>
    <circle id="ITEM_2_STROKE" cx="833.3333333333333" cy="666.6666666666666" r="45" fill="transparent" stroke="var(--accent-1)" stroke-width="3" stroke-dasharray="6 4" stroke-opacity="1.0"/>
    <circle id="ITEM_2_PAD" cx="833.33" cy="666.67" r="40.00" fill="var(--icon-pad-bg)" stroke="var(--primary-text)" stroke-width="2" opacity="0.9"/>
    <circle id="ITEM_2_PAD_INNER" cx="833.33" cy="666.67" r="31.20" fill="var(--accent-1)" fill-opacity="0.22"/>
    <g id="ITEM_2_ICON" transform="translate(808.3333333333333, 641.6666666666666)" data-icon-size="50" stroke-dasharray="6 4">
      <g transform="translate(-10.65714285714286,-10.65714285714286) scale(2.2285714285714286)">
        <path d="M14.9998 5.5L16.6147 4.98752L16.6662 4.93638C17.1092 4.49106 17.1092 3.78065 16.6768 3.33532C16.2443 2.88999 15.5272 2.89002 15.0842 3.32474L14.0215 4.38018L14.9998 5.5ZM28.659 17.9364L27.9804 18.6117L26.9998 17.5L27.4424 16.0851C27.8529 15.9163 28.3427 15.9981 28.6695 16.3353C29.1116 16.77 29.1116 17.4911 28.659 17.9364Z" fill="#9B9B9B"/>
        <path d="M14.1209 28.8751L12.7723 23.3207C14.5105 22.308 16.1288 21.1049 17.5973 19.7113L21.0251 16.4565L24.4676 14.906L26.411 11.3426L28.7058 9.16379C30.394 7.5596 30.434 4.88261 28.8057 3.2283C27.1674 1.57399 24.5001 1.59405 22.8818 3.26841L20.3602 5.89209L16.2607 7.61854L15.2234 11.2368L12.2628 14.3172C10.8643 15.781 9.63554 17.3952 8.6166 19.1297L3.09231 17.7261C2.78264 17.6459 2.46297 17.7361 2.2332 17.9567C1.79366 18.3978 2.03342 18.9493 2.47296 19.4105L12.4227 29.4968C12.9121 30.0181 13.4316 30.1886 13.8712 29.7474C14.1109 29.5068 14.2008 29.186 14.1209 28.8751Z" fill="#CDC4D6"/>
        <path d="M27.7929 5.76988L26.2533 4.21808C25.9708 3.92892 25.503 3.92894 25.2205 4.20846C24.9282 4.48797 24.9282 4.95062 25.2107 5.23013L26.7503 6.78191C27.0329 7.07106 27.5006 7.07107 27.7831 6.79156C28.0657 6.51204 28.0755 6.05904 27.7929 5.76988Z" fill="#00A6ED"/>
        <path d="M15.2156 11.2449L20.3817 5.8697L8.34626 3.051C7.88626 2.941 7.39625 3.011 6.97625 3.241C5.67625 3.971 5.67625 5.83101 6.96625 6.56101L15.2156 11.2449ZM26.4293 11.3253L21.0085 16.4723L25.46 24.7C26.16 26.01 28.03 26.04 28.78 24.76C29.02 24.35 29.1 23.87 29 23.4L26.4293 11.3253ZM8.15643 22.3151C8.57618 21.8934 9.26303 21.8934 9.68277 22.3246C10.1121 22.7463 10.1025 23.4363 9.67323 23.8579L6.83996 26.6849C6.42022 27.1066 5.73337 27.1066 5.31362 26.6754C4.89388 26.2537 4.89388 25.5637 5.32317 25.1421L8.15643 22.3151Z" fill="#0084CE"/>
      </g>
    </g>
    <!-- Connector line to the rigid text column -->
    <line id="ITEM_2_CONN" x1="878.3333333333333" y1="666.6666666666666" x2="1230" y2="666.6666666666666" stroke="var(--accent-1)" stroke-width="2" stroke-dasharray="6 4" opacity="0.6" stroke-opacity="1.0"/>
    <circle id="ITEM_2_DOT" cx="1230" cy="666.6666666666666" r="5" fill="var(--accent-1)" fill-opacity="1.0"/>
    <rect id="ITEM_2_HEAD_FRAME" x="1250" y="606.6666666666666" width="620" height="45" fill="none"/>
    <rect id="ITEM_2_TEXT_BG" x="1232" y="592.6666666666666" width="656" height="182" rx="22" fill="var(--panel)" fill-opacity="0.94" stroke="var(--accent-2)" stroke-width="2"/>
    <text id="ITEM_2_HEAD" x="1250.0" y="606.6666666666666" font-weight="bold" font-size="28" fill="var(--primary-text)" text-anchor="start" data-bg-id="ITEM_2_TEXT_BG" fill-opacity="1.0" style="font-size: 30px; font-family: Inter, Segoe UI, Kalam, Roboto, Helvetica, Arial, sans-serif; font-weight: 700; letter-spacing:-0.4px;" data-final-font-size="30">
      <tspan x="1250.0" dy="30.75px">Safety Reframing</tspan>
    </text>
    <rect id="ITEM_2_BODY_FRAME" x="1250" y="671.6666666666666" width="620" height="85" fill="none"/>
    <text id="ITEM_2_BODY" x="1250.0" y="671.6666666666666" font-size="18" fill="var(--primary-text)" text-anchor="start" data-bg-id="ITEM_2_TEXT_BG" style="font-size: 26px; font-family: Inter, Segoe UI, Kalam, Roboto, Helvetica, Arial, sans-serif; font-weight: 400;" data-final-font-size="26">
      <tspan x="1250.0" dy="25.84px">UFOs treated as aviation safety</tspan>
      <tspan x="1250.0" dy="29.90px">and transparency issues</tspan>
    </text>
    <circle id="ITEM_3_BORDER" cx="682.7956989247311" cy="433.3333333333333" r="37" fill="var(--background)" stroke="var(--accent-3)" stroke-width="3"/>
    <circle id="ITEM_3_STROKE" cx="682.7956989247311" cy="433.3333333333333" r="45" fill="transparent" stroke="var(--accent-2)" stroke-width="3" stroke-dasharray="6 4" stroke-opacity="1.0"/>
    <circle id="ITEM_3_PAD" cx="682.80" cy="433.33" r="40.00" fill="var(--icon-pad-bg)" stroke="var(--primary-text)" stroke-width="2" opacity="0.9"/>
    <circle id="ITEM_3_PAD_INNER" cx="682.80" cy="433.33" r="31.20" fill="var(--accent-2)" fill-opacity="0.22"/>
    <g id="ITEM_3_ICON" transform="translate(657.7956989247311, 408.3333333333333)" data-icon-size="50" stroke-dasharray="6 4">
      <g transform="translate(-8.844067796610172,-8.844067796610172) scale(2.820338983050848)" vector-effect="non-scaling-stroke" stroke-width="2.31" stroke-linecap="round" stroke-linejoin="round" stroke-opacity="1.0">
        <path d="m14 13-8.381 8.38a1 1 0 0 1-3.001-3l8.384-8.381" vector-effect="non-scaling-stroke" fill="none" stroke="#f1f5f9"/>
        <path d="m16 16 6-6" vector-effect="non-scaling-stroke" fill="none" stroke="#f1f5f9"/>
        <path d="m21.5 10.5-8-8" vector-effect="non-scaling-stroke" fill="none" stroke="#f1f5f9"/>
        <path d="m8 8 6-6" vector-effect="non-scaling-stroke" fill="none" stroke="#f1f5f9"/>
        <path d="m8.5 7.5 8 8" vector-effect="non-scaling-stroke" fill="none" stroke="#f1f5f9"/>
      </g>
    </g>
    <!-- Connector line to the rigid text column -->
    <line id="ITEM_3_CONN" x1="727.7956989247311" y1="433.3333333333333" x2="1230" y2="433.3333333333333" stroke="var(--accent-2)" stroke-width="2" stroke-dasharray="6 4" opacity="0.6" stroke-opacity="1.0"/>
    <circle id="ITEM_3_DOT" cx="1230" cy="433.3333333333333" r="5" fill="var(--accent-2)" fill-opacity="1.0"/>
    <rect id="ITEM_3_HEAD_FRAME" x="1250" y="373.3333333333333" width="620" height="45" fill="none"/>
    <rect id="ITEM_3_TEXT_BG" x="1232" y="359.3333333333333" width="656" height="182" rx="22" fill="var(--panel)" fill-opacity="0.94" stroke="var(--accent-3)" stroke-width="2"/>
    <text id="ITEM_3_HEAD" x="1250.0" y="373.3333333333333" font-weight="bold" font-size="28" fill="var(--primary-text)" text-anchor="start" data-bg-id="ITEM_3_TEXT_BG" fill-opacity="1.0" style="font-size: 30px; font-family: Inter, Segoe UI, Kalam, Roboto, Helvetica, Arial, sans-serif; font-weight: 700; letter-spacing:-0.4px;" data-final-font-size="30">
      <tspan x="1250.0" dy="30.75px">Congressional Hearings</tspan>
    </text>
    <rect id="ITEM_3_BODY_FRAME" x="1250" y="438.3333333333333" width="620" height="85" fill="none"/>
    <text id="ITEM_3_BODY" x="1250.0" y="438.3333333333333" font-size="18" fill="var(--primary-text)" text-anchor="start" data-bg-id="ITEM_3_TEXT_BG" style="font-size: 26px; font-family: Inter, Segoe UI, Kalam, Roboto, Helvetica, Arial, sans-serif; font-weight: 400;" data-final-font-size="26">
      <tspan x="1250.0" dy="25.84px">Public testimony creates pressure</tspan>
      <tspan x="1250.0" dy="29.90px">for government transparency</tspan>
    </text>
    <circle id="ITEM_4_BORDER" cx="532.258064516129" cy="240.0" r="37" fill="var(--background)" stroke="var(--accent-4)" stroke-width="3"/>
    <circle id="ITEM_4_STROKE" cx="532.258064516129" cy="240.0" r="45" fill="transparent" stroke="var(--accent-3)" stroke-width="3" stroke-dasharray="6 4" stroke-opacity="1.0"/>
    <circle id="ITEM_4_PAD" cx="532.26" cy="240.00" r="40.00" fill="var(--icon-pad-bg)" stroke="var(--primary-text)" stroke-width="2" opacity="0.9"/>
    <circle id="ITEM_4_PAD_INNER" cx="532.26" cy="240.00" r="31.20" fill="var(--accent-3)" fill-opacity="0.22"/>
    <g id="ITEM_4_ICON" transform="translate(507.258064516129, 215.0)" data-icon-size="50" stroke-dasharray="6 4">
      <g transform="translate(-6.200000000000003,-6.2) scale(4.457142857142857)" vector-effect="non-scaling-stroke" stroke-width="2.31" stroke-linecap="round" stroke-linejoin="round" stroke-opacity="1.0">
        <path id="Vector" fill="none" d="M1.5 5h11v7c0 0.2652 -0.1054 0.5196 -0.2929 0.7071S11.7652 13 11.5 13h-9c-0.26522 0 -0.51957 -0.1054 -0.70711 -0.2929C1.60536 12.5196 1.5 12.2652 1.5 12V5Z" vector-effect="non-scaling-stroke" stroke="#f1f5f9"/>
        <path id="Vector_2" fill="none" d="M13.5 4V2c0 -0.55228 -0.4477 -1 -1 -1l-11 0c-0.552285 0 -1 0.44772 -1 1v2c0 0.55228 0.447715 1 1 1l11 0c0.5523 0 1 -0.44772 1 -1Z" vector-effect="non-scaling-stroke" stroke="#f1f5f9"/>
        <path id="Vector_3" stroke="#f1f5f9" d="M1.5 5h11v7c0 0.2652 -0.1054 0.5196 -0.2929 0.7071S11.7652 13 11.5 13h-9c-0.26522 0 -0.51957 -0.1054 -0.70711 -0.2929C1.60536 12.5196 1.5 12.2652 1.5 12V5v0Z" vector-effect="non-scaling-stroke" fill="none"/>
        <path id="Vector_4" stroke="#f1f5f9" d="M13.5 4V2c0 -0.55228 -0.4477 -1 -1 -1l-11 0c-0.552285 0 -1 0.44772 -1 1v2c0 0.55228 0.447715 1 1 1l11 0c0.5523 0 1 -0.44772 1 -1Z" vector-effect="non-scaling-stroke" fill="none"/>
        <path id="Vector_5" stroke="#f1f5f9" d="M5.5 8h3" vector-effect="non-scaling-stroke" fill="none" display="none"/>
      </g>
    </g>
    <!-- Connector line to the rigid text column -->
    <line id="ITEM_4_CONN" x1="577.258064516129" y1="240.0" x2="1230" y2="240.0" stroke="var(--accent-3)" stroke-width="2" stroke-dasharray="6 4" opacity="0.6" stroke-opacity="1.0"/>
    <circle id="ITEM_4_DOT" cx="1230" cy="240.0" r="5" fill="var(--accent-3)" fill-opacity="1.0"/>
    <rect id="ITEM_4_HEAD_FRAME" x="1250" y="180.0" width="620" height="45" fill="none"/>
    <rect id="ITEM_4_TEXT_BG" x="1232" y="166" width="656" height="182" rx="22" fill="var(--panel)" fill-opacity="0.94" stroke="var(--accent-4)" stroke-width="2"/>
    <text id="ITEM_4_HEAD" x="1250.0" y="180.0" font-weight="bold" font-size="28" fill="var(--accent-3)" text-anchor="start" data-bg-id="ITEM_4_TEXT_BG" fill-opacity="1.0" style="font-size: 30px; font-family: Inter, Segoe UI, Kalam, Roboto, Helvetica, Arial, sans-serif; font-weight: 700; letter-spacing:-0.4px;" data-final-font-size="30">
      <tspan x="1250.0" dy="30.75px">Records Collection</tspan>
    </text>
    <rect id="ITEM_4_BODY_FRAME" x="1250" y="245.0" width="620" height="85" fill="none"/>
    <text id="ITEM_4_BODY" x="1250.0" y="245.0" font-size="18" fill="var(--primary-text)" text-anchor="start" data-bg-id="ITEM_4_TEXT_BG" style="font-size: 26px; font-family: Inter, Segoe UI, Kalam, Roboto, Helvetica, Arial, sans-serif; font-weight: 400;" data-final-font-size="26">
      <tspan x="1250.0" dy="25.84px">Legal machinery created for National Archives</tspan>
      <tspan x="1250.0" dy="29.90px">UAP records</tspan>
    </text>
  </g>
</svg>
