<?xml version='1.0' encoding='utf-8'?>
<svg xmlns="http://www.w3.org/2000/svg" width="1920" height="1080" viewBox="0 0 1920 1080" data-theme="light">
  <style>
        @font-face {
            font-family: 'Inter';
            src: url('assets/fonts/Inter-Regular.ttf') format('truetype');
            font-weight: 400;
            font-style: normal;
            font-display: swap;
        }
        @font-face {
            font-family: 'Inter';
            src: url('assets/fonts/Inter-Bold.ttf') format('truetype');
            font-weight: 600;
            font-style: normal;
            font-display: swap;
        }
        @font-face {
            font-family: 'Inter';
            src: url('assets/fonts/Inter-Bold.ttf') format('truetype');
            font-weight: 800;
            font-style: normal;
            font-display: swap;
        }
        
:root {
    --background: #f8fafc;
    --panel: #ffffff;
    --primary-text: #0f172a;
    --muted-text: #64748b;
    --inverse-text: #ffffff;
    --border: #e2e8f0;
    --shadow-color: #000000;
    --icon-pad-bg: #1e293b;
    --art-glow: #0891b2;
    --art-glow-opacity: 0.10;
    --art-sheen: #ffffff;
    --art-sheen-opacity: 0.34;
    --art-shadow: #0f172a;
    --art-shadow-opacity: 0.14;
    --art-muted-line: #94a3b8;
    --art-panel-tint: #f1f5f9;
    --font-family: 'Inter', 'Segoe UI', 'Kalam', Roboto, Helvetica, Arial, sans-serif;
    --radius-xl: 16px;
    --font-family-headline: 'Inter', 'Segoe UI', 'Kalam', Roboto, Helvetica, Arial, sans-serif;
    --font-family-body: 'Inter', 'Segoe UI', 'Kalam', Roboto, Helvetica, Arial, sans-serif;
    --font-heading: 'Inter', 'Segoe UI', 'Kalam', Roboto, Helvetica, Arial, sans-serif;
    --font-body: 'Inter', 'Segoe UI', 'Kalam', Roboto, Helvetica, Arial, sans-serif;
    --font-size-h1: 56px;
    --font-size-h2: 40px;
    --font-size-h3: 28px;
    --font-size-body: 24px;
    --font-size-caption: 18px;
    --secondary-text: var(--muted-text);
    --panel-border: var(--border);
    --font-weight-normal: 400;
    --font-weight-medium: 500;
    --font-weight-semibold: 600;
    --font-weight-bold: 700;
    --spacing-gutter-pct: 0.07;
    --spacing-top-pct: 0.15;
    --spacing-bottom-pct: 0.07;
    --spacing-title-y-pct: 0.055;
    --accent-1: #0891b2;
    --accent-2: #0284c7;
    --accent-3: #2563eb;
    --accent-4: #4f46e5;
    --accent-5: #7c3aed;
    --accent-6: #0d9488;
}
:root[data-theme="dark"] {
    --background: #0f172a;
    --panel: #1e293b;
    --primary-text: #f1f5f9;
    --muted-text: #94a3b8;
    --inverse-text: #0f172a;
    --border: #334155;
    --shadow-color: #000000;
    --icon-pad-bg: #1e293b;
    --art-glow: #7dd3fc;
    --art-glow-opacity: 0.18;
    --art-sheen: #ffffff;
    --art-sheen-opacity: 0.18;
    --art-shadow: #000000;
    --art-shadow-opacity: 0.28;
    --art-muted-line: #64748b;
    --art-panel-tint: #1e293b;
    --accent-1: #22d3ee;
    --accent-2: #38bdf8;
    --accent-3: #60a5fa;
    --accent-4: #818cf8;
    --accent-5: #a78bfa;
    --accent-6: #2dd4bf;
}
:root[data-theme="light"] {
    --background: #f8fafc;
    --panel: #ffffff;
    --primary-text: #0f172a;
    --muted-text: #64748b;
    --inverse-text: #ffffff;
    --border: #e2e8f0;
    --shadow-color: #000000;
    --icon-pad-bg: #1e293b;
    --art-glow: #0891b2;
    --art-glow-opacity: 0.10;
    --art-sheen: #ffffff;
    --art-sheen-opacity: 0.34;
    --art-shadow: #0f172a;
    --art-shadow-opacity: 0.14;
    --art-muted-line: #94a3b8;
    --art-panel-tint: #f1f5f9;
    --accent-1: #0891b2;
    --accent-2: #0284c7;
    --accent-3: #2563eb;
    --accent-4: #4f46e5;
    --accent-5: #7c3aed;
    --accent-6: #0d9488;
}</style>
  <rect x="0" y="0" width="1.92E+3" height="1.08E+3" fill="#252a34" stroke="none" id="programmatic_background"/>
  <line id="HEADER_DECOR" x1="960.0" x2="1080.0" y1="135.0" y2="135.0" stroke="var(--accent-1)" stroke-width="6" stroke-linecap="round"/>
  <defs>
    <pattern id="svg26920cf4-napkin-hatch" patternUnits="userSpaceOnUse" width="12" height="12">
      <path d="M -3 12 L 12 -3 M 0 15 L 15 0" fill="none" stroke="var(--primary-text)" stroke-width="1" stroke-opacity="0.05"/>
    </pattern>
    <filter id="svg26920cf4-shadow" x="-30%" y="-30%" width="160%" height="160%">
      <feDropShadow dx="0" dy="2" stdDeviation="3" flood-color="#000000" flood-opacity="0.08"/>
      <feDropShadow dx="0" dy="6" stdDeviation="10" flood-color="#000000" flood-opacity="0.12"/>
    </filter>
    <marker id="svg26920cf4-arrowhead" markerWidth="10" markerHeight="10" refX="9" refY="5" orient="auto">
      <path d="M 0 0 L 10 5 L 0 10 Z" fill="var(--accent-1)"/>
    </marker>
    <filter id="svg26920cf4-text-glow" x="-20%" y="-20%" width="140%" height="140%">
      <feDropShadow dx="0" dy="0" stdDeviation="2" flood-color="#000000" flood-opacity="0.4"/>
    </filter>
    <radialGradient id="svg26920cf4-universal-edge-vignette" cx="50%" cy="50%" r="72%">
      <stop offset="0%" stop-color="var(--background)" stop-opacity="0"/>
      <stop offset="72%" stop-color="var(--background)" stop-opacity="0.12"/>
      <stop offset="100%" stop-color="var(--primary-text)" stop-opacity="0.08"/>
    </radialGradient>
    <linearGradient id="svg26920cf4-universal-surface-sheen" x1="0%" y1="0%" x2="100%" y2="100%">
      <stop offset="0%" stop-color="var(--art-sheen)" stop-opacity="var(--art-sheen-opacity)"/>
      <stop offset="46%" stop-color="var(--art-sheen)" stop-opacity="0.035"/>
      <stop offset="100%" stop-color="var(--art-panel-tint)" stop-opacity="0.14"/>
    </linearGradient>
    <radialGradient id="svg26920cf4-universal-icon-aura" cx="50%" cy="42%" r="64%">
      <stop offset="0%" stop-color="var(--art-glow)" stop-opacity="var(--art-glow-opacity)"/>
      <stop offset="100%" stop-color="var(--background)" stop-opacity="0"/>
    </radialGradient>
    <radialGradient id="svg26920cf4-bullseye-art-glow" cx="50%" cy="52%" r="68%">
      <stop offset="0%" stop-color="var(--inverse-text)" stop-opacity="0.14"/>
      <stop offset="100%" stop-color="var(--background)" stop-opacity="0"/>
    </radialGradient>
    <linearGradient id="svg26920cf4-bullseye-art-sheen" x1="16%" y1="0%" x2="86%" y2="100%">
      <stop offset="0%" stop-color="var(--inverse-text)" stop-opacity="0.22"/>
      <stop offset="52%" stop-color="var(--inverse-text)" stop-opacity="0.035"/>
      <stop offset="100%" stop-color="var(--background)" stop-opacity="0.14"/>
    </linearGradient>
  </defs>
  <rect width="100%" height="100%" fill="var(--background)" id="CANVAS_BG"/>
  <rect width="100%" height="100%" fill="url(#svg26920cf4-napkin-hatch)"/>
  <ellipse id="BULLSEYE_ART_GLOW" cx="960" cy="600" rx="650" ry="340" fill="url(#svg26920cf4-bullseye-art-glow)" opacity="0.84"/>
  <rect id="UNIVERSAL_EDGE_VIGNETTE" width="100%" height="100%" fill="url(#svg26920cf4-universal-edge-vignette)" opacity="0.62"/>
  <text id="TITLE" x="960.0" y="59" font-size="63" font-weight="700" fill="#0f172a" style="font-size: 60px; font-family: Inter, Segoe UI, Kalam, Roboto, Helvetica, Arial, sans-serif; font-weight: 700; letter-spacing:-1.2px;" text-anchor="middle" data-final-font-size="60">
    <tspan x="960.0" dy="68.00px">Aykroyd's UFO Media Legacy</tspan>
  </text>
  <rect id="TITLE_FRAME" x="134" y="59" width="1652" height="103" fill="none"/>
  <g id="DIAGRAM_SCALER" transform="translate(47.6, 33.8) scale(0.95)">
    <g transform="translate(960, 570)">
      <path d="M 168.33333333333334,0 A 168.33333333333334,168.33333333333334 0 1,0 -168.33333333333334,0 A 168.33333333333334,168.33333333333334 0 1,0 168.33333333333334,0 M 135.0,0 A 135.0,135.0 0 1,1 -135.0,0 A 135.0,135.0 0 1,1 135.0,0 Z" fill="var(--accent-2)" fill-opacity="0.2" stroke="var(--background)" stroke-width="2"/>
      <line x1="0.0" y1="-168.3" x2="0.0" y2="-235.0" stroke="var(--accent-2)" stroke-width="2" opacity="0.8"/>
      <circle cx="0.0" cy="-168.3" r="4" fill="var(--accent-2)"/>
      <path d="M 201.66666666666669,0 A 201.66666666666669,201.66666666666669 0 1,0 -201.66666666666669,0 A 201.66666666666669,201.66666666666669 0 1,0 201.66666666666669,0 M 168.33333333333334,0 A 168.33333333333334,168.33333333333334 0 1,1 -168.33333333333334,0 A 168.33333333333334,168.33333333333334 0 1,1 168.33333333333334,0 Z" fill="var(--accent-3)" fill-opacity="0.2" stroke="var(--background)" stroke-width="2"/>
      <line x1="194.2" y1="54.3" x2="474.3" y2="132.5" stroke="var(--accent-3)" stroke-width="2" opacity="0.8"/>
      <circle cx="194.2" cy="54.3" r="4" fill="var(--accent-3)"/>
      <path d="M 235.0,0 A 235.0,235.0 0 1,0 -235.0,0 A 235.0,235.0 0 1,0 235.0,0 M 201.66666666666669,0 A 201.66666666666669,201.66666666666669 0 1,1 -201.66666666666669,0 A 201.66666666666669,201.66666666666669 0 1,1 201.66666666666669,0 Z" fill="var(--accent-4)" fill-opacity="0.2" stroke="var(--background)" stroke-width="2"/>
      <line x1="-226.3" y1="63.2" x2="-474.3" y2="132.5" stroke="var(--accent-4)" stroke-width="2" opacity="0.8"/>
      <circle cx="-226.3" cy="63.2" r="4" fill="var(--accent-4)"/>
    </g>
    <g transform="translate(960, 570)">
      <circle id="ITEM_1_BG" r="132" fill="var(--accent-2)" stroke="var(--accent-1)" stroke-width="3" fill-opacity="1.0"/>
      <rect id="ITEM_1_TEXT_BG" x="-196" y="-90" width="392" height="200" rx="34" fill="var(--panel)" fill-opacity="0.96" stroke="var(--accent-1)" stroke-width="3"/>
      <rect x="-196" y="-90" width="392" height="16" rx="8" fill="var(--accent-1)" fill-opacity="0.32"/>
      <text id="ITEM_1_HEAD" x="0.0" y="0.0" text-anchor="middle" font-weight="bold" font-size="32" fill="var(--primary-text)" data-bg-id="ITEM_1_TEXT_BG" fill-opacity="1.0" style="font-size: 30px; font-family: Inter, Segoe UI, Kalam, Roboto, Helvetica, Arial, sans-serif; font-weight: 700; letter-spacing:-0.4px;" data-final-font-size="30">
        <tspan x="0.0" dy="26.25px">Advocacy</tspan>
      </text>
      <rect id="ITEM_1_HEAD_FRAME" x="-150" y="0" width="300" height="36" fill="none"/>
      <text id="ITEM_1_BODY" x="0.0" y="54.0" text-anchor="middle" font-size="19" fill="var(--primary-text)" data-bg-id="ITEM_1_TEXT_BG" style="font-size: 19px; font-family: Inter, Segoe UI, Kalam, Roboto, Helvetica, Arial, sans-serif; font-weight: 400;" data-final-font-size="19">
        <tspan x="0.0" dy="15.30px">Argues that witnesses deserve</tspan>
        <tspan x="0.0" dy="23.75px">serious public attention</tspan>
      </text>
      <rect id="ITEM_1_BODY_FRAME" x="-158" y="54" width="316" height="48" fill="none"/>
      <circle id="BULLSEYE_ART_ICON_AURA_1" cx="0" cy="-42" r="72" fill="url(#svg26920cf4-universal-icon-aura)" opacity="0.78"/>
      <circle id="ITEM_1_PAD" cx="0" cy="-42" r="28" fill="var(--icon-pad-bg)" stroke="var(--primary-text)" opacity="0.92" fill-opacity="0.9" stroke-width="2"/>
      <circle id="ITEM_1_PAD_INNER" cx="0" cy="-42" r="21.84" fill="var(--accent-2)" fill-opacity="0.22"/>
      <circle cx="0" cy="-42" r="22" fill="none" stroke="var(--accent-1)" stroke-width="3" stroke-dasharray="6 4"/>
      <g id="ITEM_1_ICON" transform="translate(-25.0, -67.0)" data-icon-size="50" stroke-dasharray="6 4">
        <g transform="translate(-3.5714285714285716,-3.125000000000002) scale(1.7857142857142858)">
          <path d="M25.0642 23.4047L23.9155 20.598L22.2011 21.2996L23.3511 24.1097L23.3525 24.113C23.5183 24.5137 23.3281 24.9545 22.9426 25.1096L18.0368 27.1219L18.0342 27.123C17.6335 27.2888 17.1927 27.0987 17.0376 26.7132L15.8855 23.898L14.1711 24.5997L15.3202 27.4074C15.8659 28.7594 17.403 29.3881 18.741 28.8353L18.7425 28.8347L23.6372 26.8268C24.9889 26.281 25.6173 24.7444 25.065 23.4066L25.0642 23.4047ZM8 23.5L9.70824 26.7789C10.3282 27.4289 10.2982 28.4589 9.63824 29.0689C8.98824 29.6789 7.95824 29.6489 7.34824 28.9989L2.43824 23.7889C1.82824 23.1389 1.85824 22.1089 2.50824 21.4989C3.15824 20.8889 4.18824 20.9189 4.79824 21.5689L8 23.5Z" fill="#FFB02E"/>
          <path d="M29.2283 15.0788L17.6783 2.82884C16.4083 1.47884 14.1783 1.82887 13.3883 3.50887L4.79834 21.5689L9.76834 26.8389L28.3083 19.3288C30.0183 18.6388 30.4983 16.4288 29.2283 15.0788Z" fill="#F9C23C"/>
        </g>
      </g>
    </g>
    <g transform="translate(960.0, 270.0)">
      <circle id="BULLSEYE_ART_ICON_AURA_2" cx="0" cy="0" r="72" fill="url(#svg26920cf4-universal-icon-aura)" opacity="0.78"/>
      <circle id="ITEM_2_PAD" cx="0" cy="0" r="58" fill="var(--icon-pad-bg)" stroke="var(--primary-text)" opacity="0.9" fill-opacity="0.9" stroke-width="2"/>
      <circle id="ITEM_2_PAD_INNER" cx="0" cy="0" r="45.24" fill="var(--accent-3)" fill-opacity="0.22"/>
      <circle cx="0" cy="0" r="46.4" fill="none" stroke="var(--accent-1)" stroke-width="3" stroke-dasharray="6 4"/>
      <g id="ITEM_2_ICON" transform="translate(-45.0, -45.0)" data-icon-size="90" stroke-dasharray="6 4">
        <g transform="translate(-8.61777777777778,-11.13111111111111) scale(4.468148148148148)" vector-effect="non-scaling-stroke" stroke-width="2.79" stroke-linecap="round" stroke-linejoin="round" stroke-opacity="1.0">
          <path d="M14 20h-8a3 3 0 0 1 0 -6h11a3 3 0 0 0 -3 3m7 -3v-8a2 2 0 0 0 -2 -2h-10a2 2 0 0 0 -2 2v8" vector-effect="non-scaling-stroke" fill="none" stroke="#f1f5f9"/>
          <path d="M17 17l4 4m0 -4l-4 4" vector-effect="non-scaling-stroke" fill="none" stroke="#f1f5f9"/>
        </g>
      </g>
      <rect id="ITEM_2_TEXT_BG" x="77" y="-39" width="316" height="184" rx="22" fill="var(--panel)" fill-opacity="0.94" stroke="var(--accent-2)" stroke-width="2"/>
      <text id="ITEM_2_HEAD" x="95.0" y="-25.0" text-anchor="start" font-weight="bold" font-size="33" fill="var(--accent-3)" data-bg-id="ITEM_2_TEXT_BG" fill-opacity="1.0" style="font-size: 30px; font-family: Inter, Segoe UI, Kalam, Roboto, Helvetica, Arial, sans-serif; font-weight: 700; letter-spacing:-0.4px;" data-final-font-size="30">
        <tspan x="95.0" dy="33.25px">Narrative Role</tspan>
      </text>
      <rect id="ITEM_2_HEAD_FRAME" x="95" y="-25" width="260" height="50" fill="none"/>
      <text id="ITEM_2_BODY" x="95.0" y="22.0" text-anchor="start" font-size="21" fill="var(--primary-text)" data-bg-id="ITEM_2_TEXT_BG" style="font-size: 26px; font-family: Inter, Segoe UI, Kalam, Roboto, Helvetica, Arial, sans-serif; font-weight: 400;" data-final-font-size="26">
        <tspan x="95.0" dy="29.84px">Acts as a narrator</tspan>
        <tspan x="95.0" dy="29.90px">of UFO culture themes</tspan>
      </text>
      <rect id="ITEM_2_BODY_FRAME" x="95" y="22" width="280" height="105" fill="none"/>
    </g>
    <g transform="translate(1496.9, 720.0)">
      <circle id="BULLSEYE_ART_ICON_AURA_3" cx="0" cy="0" r="72" fill="url(#svg26920cf4-universal-icon-aura)" opacity="0.78"/>
      <circle id="ITEM_3_PAD" cx="0" cy="0" r="58" fill="var(--icon-pad-bg)" stroke="var(--primary-text)" opacity="0.9" fill-opacity="0.9" stroke-width="2"/>
      <circle id="ITEM_3_PAD_INNER" cx="0" cy="0" r="45.24" fill="var(--accent-4)" fill-opacity="0.22"/>
      <circle cx="0" cy="0" r="46.4" fill="none" stroke="var(--accent-2)" stroke-width="3" stroke-dasharray="6 4"/>
      <g id="ITEM_3_ICON" transform="translate(-45.0, -45.0)" data-icon-size="90" stroke-dasharray="6 4">
        <g transform="translate(-4.073898305084748,-4.073898305084748) scale(4.089491525423729)" vector-effect="non-scaling-stroke" stroke-width="2.79" stroke-linecap="round" stroke-linejoin="round" stroke-opacity="1.0">
          <path d="M15.295 19.562 16 22" vector-effect="non-scaling-stroke" fill="none" stroke="#f1f5f9"/>
          <path d="m17 16 3.758 2.098" vector-effect="non-scaling-stroke" fill="none" stroke="#f1f5f9"/>
          <path d="m19 12.5 3.026-.598" vector-effect="non-scaling-stroke" fill="none" stroke="#f1f5f9"/>
          <path d="M7.61 6.3a3 3 0 0 0-3.92 1.3l-1.38 2.79a3 3 0 0 0 1.3 3.91l6.89 3.597a1 1 0 0 0 1.342-.447l3.106-6.211a1 1 0 0 0-.447-1.341z" vector-effect="non-scaling-stroke" fill="none" stroke="#f1f5f9"/>
          <path d="M8 9V2" vector-effect="non-scaling-stroke" fill="none" stroke="#f1f5f9"/>
        </g>
      </g>
      <rect id="ITEM_3_TEXT_BG" x="-208" y="56" width="416" height="207" rx="22" fill="var(--panel)" fill-opacity="0.94" stroke="var(--accent-3)" stroke-width="2"/>
      <text id="ITEM_3_HEAD" x="0.0" y="70.0" text-anchor="middle" font-weight="bold" font-size="33" fill="var(--accent-4)" data-bg-id="ITEM_3_TEXT_BG" fill-opacity="1.0" style="font-size: 30px; font-family: Inter, Segoe UI, Kalam, Roboto, Helvetica, Arial, sans-serif; font-weight: 700; letter-spacing:-0.4px;" data-final-font-size="30">
        <tspan x="0.0" dy="28.25px">Public Credibility</tspan>
      </text>
      <rect id="ITEM_3_HEAD_FRAME" x="-180" y="70" width="360" height="40" fill="none"/>
      <text id="ITEM_3_BODY" x="0.0" y="125.0" text-anchor="middle" font-size="21" fill="var(--primary-text)" data-bg-id="ITEM_3_TEXT_BG" style="font-size: 26px; font-family: Inter, Segoe UI, Kalam, Roboto, Helvetica, Arial, sans-serif; font-weight: 400;" data-final-font-size="26">
        <tspan x="0.0" dy="26.86px">Uses Hollywood fame</tspan>
        <tspan x="0.0" dy="29.90px">to validate paranormal</tspan>
        <tspan x="0.0" dy="29.90px">discussions</tspan>
      </text>
      <rect id="ITEM_3_BODY_FRAME" x="-190" y="125" width="380" height="120" fill="none"/>
    </g>
    <g transform="translate(423.1, 720.0)">
      <circle id="BULLSEYE_ART_ICON_AURA_4" cx="0" cy="0" r="72" fill="url(#svg26920cf4-universal-icon-aura)" opacity="0.78"/>
      <circle id="ITEM_4_PAD" cx="0" cy="0" r="58" fill="var(--icon-pad-bg)" stroke="var(--primary-text)" opacity="0.9" fill-opacity="0.9" stroke-width="2"/>
      <circle id="ITEM_4_PAD_INNER" cx="0" cy="0" r="45.24" fill="var(--accent-5)" fill-opacity="0.22"/>
      <circle cx="0" cy="0" r="46.4" fill="none" stroke="var(--accent-3)" stroke-width="3" stroke-dasharray="6 4"/>
      <g id="ITEM_4_ICON" transform="translate(-45.0, -45.0)" data-icon-size="90" stroke-dasharray="6 4">
        <g transform="translate(-6.7028571428571455,-6.7028571428571455) scale(3.2314285714285718)">
          <path d="M16.2483 4.52616C18.9098 1.83682 23.1163 1.14182 26.2861 3.18653C30.7219 6.03703 31.1805 12.1208 27.6817 15.6562C25.3721 17.9958 21.9577 18.5834 19.0921 17.421C17.6761 18.8362 15.9246 20.5894 15.5 21.0254C15.29 21.2354 14.92 21.3454 14.58 21.2454C14.17 21.1254 13.74 21.1254 13.28 21.2754C12.75 21.4554 12.39 22.0854 12.41 22.3755C12.45 23.0054 12.35 23.2754 12.07 23.5654C11.7883 23.861 11.4895 23.8921 11.1766 23.9247C10.812 23.9626 10.4282 24.0026 10.03 24.4655C9.62999 24.9354 9.55999 25.6454 9.69999 26.1754C9.77999 26.4854 9.67999 26.8554 9.39999 27.1354C8.89999 27.6354 7.54046 28.975 7.54046 28.975C6.51046 30.005 4.89046 30.315 3.63046 29.585C1.72046 28.485 1.49046 25.975 2.93046 24.535L14.6195 12.8546C14.5156 12.6025 14.4204 12.3411 14.3345 12.0704C13.4872 9.4113 14.2946 6.50036 16.2483 4.52616ZM23.8838 5.82551C23.1661 6.55073 23.1661 7.73927 23.8838 8.46449C24.6115 9.18971 25.7778 9.18971 26.4955 8.46449C27.2132 7.73927 27.2132 6.55073 26.4955 5.82551C25.7778 5.10029 24.6015 5.10029 23.8838 5.82551Z" fill="#F9C23C"/>
        </g>
      </g>
      <rect id="ITEM_4_TEXT_BG" x="-208" y="56" width="416" height="207" rx="22" fill="var(--panel)" fill-opacity="0.94" stroke="var(--accent-4)" stroke-width="2"/>
      <text id="ITEM_4_HEAD" x="0.0" y="70.0" text-anchor="middle" font-weight="bold" font-size="33" fill="var(--accent-5)" data-bg-id="ITEM_4_TEXT_BG" fill-opacity="1.0" style="font-size: 30px; font-family: Inter, Segoe UI, Kalam, Roboto, Helvetica, Arial, sans-serif; font-weight: 700; letter-spacing:-0.4px;" data-final-font-size="30">
        <tspan x="0.0" dy="28.25px">Stable Position</tspan>
      </text>
      <rect id="ITEM_4_HEAD_FRAME" x="-180" y="70" width="360" height="40" fill="none"/>
      <text id="ITEM_4_BODY" x="0.0" y="125.0" text-anchor="middle" font-size="21" fill="var(--primary-text)" data-bg-id="ITEM_4_TEXT_BG" style="font-size: 26px; font-family: Inter, Segoe UI, Kalam, Roboto, Helvetica, Arial, sans-serif; font-weight: 400;" data-final-font-size="26">
        <tspan x="0.0" dy="32.84px">Reflects a long-standing</tspan>
        <tspan x="0.0" dy="29.90px">personal belief system</tspan>
      </text>
      <rect id="ITEM_4_BODY_FRAME" x="-190" y="125" width="380" height="120" fill="none"/>
    </g>
  </g>
</svg>
